<?xml version="1.0" encoding="UTF-8"?>
<svg id="_图层_2" data-name="图层 2" xmlns="http://www.w3.org/2000/svg" viewBox="0 0 82.18 32.31">
  <defs>
    <style>
      .cls-1 {
        fill: #e50012;
        fill-rule: evenodd;
        stroke-width: 0px;
      }
    </style>
  </defs>
  <g id="_图层_1-2" data-name="图层 1">
    <g>
      <g>
        <g>
          <path class="cls-1" d="m2.74,1.4c.09.42.38.3.59.35.3.14.36.34.79.59.09.06.33.27.59.37.02,0,.03,0,.04.02.41.44.54.45.82.61.02,0,.03.01.05.02.12.02.32-.03.58-.17.03-.02.06-.03.09-.04.42-.12.96-.38,1.16-.79.08-.16-.01-.4-.12-.46-.02-.01-.04-.02-.05-.04-.33-.35-.62-.31-.83-.51-.02-.02-.04-.04-.06-.05-.23-.16-.51-.32-.74-.47-.04-.03-.06-.04-.1-.04-.61-.07-1.19-.18-1.92-.17-.03,0-.04,0-.07.01-.73.22-.78.48-.81.7,0,.01,0,.03,0,.04,0,0,0,.02,0,.03Z"/>
          <path class="cls-1" d="m8.49,3.13c-1.27.99-2.87,2.83-4.29,3.84-.03.02-.05.04-.07.07-.57.75-1.23,1.22-1.43,1.28-.04.01-.07.01-.11.03-1.09.43-1.01-.18-1.62-.13-.01,0-.02,0-.03,0-.24.08-.56.31-.5.9,0,.01,0,.02,0,.03.41,1.32,1.36,2.05,1.87,2,.03,0,.07,0,.1,0,.74.03,1.33-.5,1.67-.82,0,0,.02-.02.03-.02,0,0,0,0,0,0,0,0,.01,0,.02,0,.46-.18.51.14.52.53,0,.02,0,.04,0,.06-.13.39-.3.63-.45.84-.01.02-.02.03-.03.05-.63,1.57-1.5,2.38-2.04,2.8C1,15.56-.03,15.9,0,17.55c0,.04,0,.07.02.11.32,1.13.75,1.56,1.08,1.53.69,0,1.13-1.18,1.56-1.85,0,0,0-.02.01-.02.24-.44.36-.66.82-.97,1.16-.6,1.12.47,1.02.92-.41,2.47.47,3.16.97,3.22.02,0,.04,0,.07,0,.65-.09.73-.47.85-.78.01-.03.02-.06.03-.09.04-.19.13-.37.14-.58,0-.06,0-.1.02-.15.03-.14.01-.2.02-.27,0-.03.02-.07.02-.11.02-.11.09-.23.11-.36.01-.07.04-.15.04-.22,0-.76-.26-.87-.39-2.29-.01-.15-.02-.27-.06-.41-.28-1.06.6-.92,1.18-.9.19,0,.38-.01.57.01.56.07.72-.27,1-.49.03-.02.04-.04.07-.06.37-.45,1.23-1.67.35-2.22-.58-.19-.65.48-.94.78-.05.05-.09.11-.13.16-.34.41-1.05.73-1.52-.04,0,0,0-.02-.02-.02-.18-.25-.4-.39-.41-.88,0-.01,0-.02,0-.04.03-.33.06-.41.16-.65.23-.43.41-.65.75-1.42.02-.04.03-.06.05-.09.22-.25.25-.59.44-.85.12-.15.15-.23.2-.37.05-.22.14-.43.21-.64.01-.03.02-.05.04-.07.09-.14.15-.23.2-.42,0-.01,0-.02,0-.03.08-.36.19-.66.28-.87,0-.02.01-.03.02-.05.2-.76,1.55-2.64.84-3.06-.01,0-.02-.01-.04-.02-.4-.1-.5-.28-1.14.1-.01,0-.02.01-.03.02Z"/>
          <path class="cls-1" d="m16.46.15c-.76-.4-1.03.1-1.34.31-.02.01-.03.02-.04.03-.82.81-1.26,1.59-1.87,1.91-.85.4-2.22-.11-2.53,1.01,0,.03,0,.05,0,.08.05.61.56.8,1.02.78.4-.02.68-.31.96-.22.45.12.29.51.21.7-.16.53-.15.82-.2.91-.01.02-.02.03-.03.05-.12.24-.33.41-.35.72,0,.03-.01.05-.02.07-.19.32-.36.78-.48,1.11-.06.29-.32.61-.48.92-.08.23-.18.31-.26.49-.11.27-.19.59-.3.76-.03.04-.04.06-.06.11-.09.3-.2.54-.25.93-.13.59-.07,1.08-.34,1.46-.03.04-.03.06-.03.11-.07.78.05,1.36-.25,2.39-.15.66-.19,1.58-.44,2.02-.03.05-.03.07-.03.13,0,1.23.82,1.92,1.21,1.89.78-.06.4-1.7.5-2.54.05-.7.36-1.25.45-1.91.1-.68-.08-1.71.04-2.14.26-1.05.62-2.15,1.15-2.95.37-.58,1.36-2.24,1.89-1.16.09.43-.18,1.12-.27,1.68-.04,1.11-.24,1.2-.37,1.8.21,1.28,1.17,1.55,1.47,1.28,2.26-1.22,3.42-2.2,4.59-.46.72,2.79.32,3.46,0,5.1-.55.98-1.65,2.26-2.53,1.82-.23-.56.11-.75.04-1.23-.08-.24-.5-.3-.5-.65-.02-.53.13-.59.28-1.17.19-.74.35-1.58-.38-1.69-1.52-.82-2.3.88-2.86,1.51-.2.21-.4.49-.86.23-.15-.1-.46-.25-.89.11-.52.32-.41,1.15-.44,1.73,0,.26,0,.68.16.83.39.37,1.07.94,1.37.95.58,0,.93-.34,1.43-.49.6-.09.55.58.18.98-.23.26-.8.65-.6.94.34.26.89-.19,1.08-.31.48-.3.8,0,.97.18,0,0,.02.02.03.03.65.53,1.07.45,1.66.34.02,0,.03,0,.05-.01.98-.35,1.85-1.1,2.72-2.3.46-.73.61-1.08.62-2.07,0-.08,0-.12.03-.2.15-.39.18-.87.14-1.22,0-.03,0-.04,0-.07.06-.45.15-.99.08-1.44-.22-1.44.27-3.17-1.69-4.04-1.65-.66-2.54.31-3.81.49-.02,0-.04,0-.06,0-.14,0-.38-.1-.42-.42,0-.02,0-.04,0-.06.04-.21.18-.29.3-.5.1-.18.19-.44.22-.75,0-.4-.36-.55-.17-1.14.21-.67.92-1.47.34-2.04-.24-.27-.51-.35-1.28-.12-.44.13-.85.3-1.14.11-.34-.27.08-.64.15-.97,0-.02,0-.03.02-.05.25-.39.4-.69.56-1.18.27-.57.84-1.22,1.35-1.82.55-.63,1.02-1.2.32-1.69Z"/>
        </g>
        <path class="cls-1" d="m34.83,1.75c-.56-.17-1.18.98-1.7,1.6-.09.1-.11.16-.17.29-.33.81-1.12,1.62-1.67,2.44-.03.04-.05.07-.06.12-.43.99-.89,2.33-1.41,3.08-.02.03-.05.06-.08.09-.98.99-2.54,2.55-2.48,4.79,0,.05,0,.08.02.13.11.39.26,1.05.88,1.05.04,0,.06,0,.08-.04.1-.21.16-1.16.24-1.68.05-.32.46-1.11.91-1.9.09-.14.42-.44.72-.08.14.18.43.39.87-.1.22-.31.35-.52.47-.85.02-.05.03-.09.03-.15.03-.24.11-.62.25-.85.19-.36.46-.91,1.2-1.23,1.18-.47,2.61-.49,2.36.38,0,.03-.01.06-.02.08-.39,1.91-1.6,3.45-2.43,4.57-1.91,2.15-2.47,2.38-3.31,1.93-.38-.18-.88-.06-1.12.02-.11.04-.12.08-.14.19-.17.81.19,1.1.44,1.27.07.04.13.09.19.14.88.74,2.14.32,2.74.01.02-.01.04-.03.06-.04,1.81-1.37,2.78-2.23,3.94-4.8.1-.23.15-.36.21-.46.31-.38.56-.73.58.22-.05.5-.2,1.18.33,1.83.17.2.22.31.33.55.1.22.25.44.49.63.09.07.19.14.29.21.1.07.19.15.29.21.81.46,1.54-.74,1.72-1.22.28-.55.5-1.45.23-2.19-.27-1.09.54-.74.85-.39.06.07.11.12.18.18,1.43,1.21,2.44,4.03,1.47,5.73-1.01,1.98-3.44,1.48-3.37,1.9-.27.84,1.58,1.3,2.54.87.22-.1.45-.28.64-.42,1.05-.75,2.53-2.45,1.2-6.28-.84-1.92-2.29-3.81-4.39-4.46-.27-.15-.49-.4-.69-.65-.37-.28-.76-.66-1.29-.86-.28-.2-.44-.38-.54-.55-.04-.07-.04-.1-.05-.18-.02-.24-.1-.54-.22-.75-.05-.08-.09-.16-.14-.24-.16-.28-.51-.7-.94-.62-.39.18-.38.72-.32.93.94.88-.26,1.37-1.21.86-.68-.19-.8.26-1.24.27-.17-.01-.54-.09-.21-.62.81-1.64,3.52-4.26,2.42-4.92h0Zm2.84,9.55c.41-1.45,1.13-.72,1.25-.41.3.56.28,1.24.21,1.45-.07.52-.63,1.2-1.27.15-.02-.03-.02-.04-.03-.08-.06-.37-.22-.67-.15-1.11h0Zm-1.03-2.48c.28-.69,1.22-.11.92.61-.63.5-.43.55-.64.82-.24.3-.84.63-.64-.2.41-.62.25-.82.37-1.23Z"/>
        <path class="cls-1" d="m45.54,7.32c-.03.71.07.96.18,1.42.22,1.03-.35,1.22-.6,1.76-.61,1.04.29.79.68.48.08-.06.15-.15.23-.22.37-.35.62-.77,1.11-1.03.15-.08.27-.13.41-.24.42-.34,1.14-1.04.55-1.3-.1-.04-.18-.06-.27-.12-.28-.17-.66-.35-.75-.79-.03-.14-.02-.21-.09-.34-.58-1.06-1.38-.38-1.45.38Z"/>
        <g>
          <path class="cls-1" d="m58.26,7.06c.05,3.8-.26,3.93-1.16,4.22-.25.08-.35.13-.61.08-2.04-.41-2.01.32-2.27.89-.06.13-.11.17-.07.32.12.52.91,1.24,1.1,1.31.34.15.89-.04,1.18.16.41.44-.03,1-.38,1.8-.33.58-.4,1.35.66,1.8.43.12.92-.48.95-.62.19-.93.22-3.54,2.03-4.11.07-.02.14-.05.21-.08,1.51-.69,3.12-1.43,6.03-1.46.13,0,.16,0,.26-.08.75-.59.7-1.62-.88-2.26-.1-.04-.16-.06-.27-.06-.61.02-1.1.49-1.72.82-.66.35-1.47.54-2.14.81-.66.18-1.69.93-1.08-1.54.04-.16.1-.22.16-.36.17-.4-.12-1.36-.34-2.07-.02-.05-.03-.09-.06-.13-.16-.26-.72-1.03-1.46-.07-.18.23-.14.36-.13.64Z"/>
          <path class="cls-1" d="m62.15,14.37c-1.04,1.47.29,2.58.92,3.05.18.08,1.43.25,1.91-.86.08-.34-.12-.89-1.22-1.66-.5-.29-1.13-.99-1.61-.53Z"/>
        </g>
        <path class="cls-1" d="m71.54,1.26c-.52.29-.7,1.13-.74,1.54,0,.08-.03.15-.04.23-.25,1.04.21,1.25.63,1.54.72.46,1.05.73,1.72-.26.35-.46.75-.84.14-1.66-.04-.05-.07-.1-.1-.16-.1-.19-.24-.33-.45-.55-.03-.04-.05-.05-.06-.1-.11-.29-.44-.63-.92-.63-.07,0-.11,0-.17.04h0Zm2.3-.66c.54-.4.89,0,1.34.17,1.08.55,1.64.07,2.49.02.16,0,.19-.03.34-.1.61-.33,1.38-.28,2.08-.24.05,0,.08.01.13.03.32.11.38.24.59.41.02.02.04.03.06.04,1.58.81.07,2.37-.56,3.69-.02.03-.03.06-.05.09-.26.38-.33.57-.51.79-1.5,1.53.77,1.37,1.5,1.95,2.22,1.83.02,5.59-2.03,6.59-.68.25-.9.14-1.56,1.54-.02.04-.04.07-.06.11-1.23,1.84.19,1.91.81,1.8.08-.01.16-.02.24-.03,1.41-.07,1.93-.47,2.44-.39.04,0,.06.02.1.04,1.8,1.06.44,2.14-.78,2.25-1.72-.09-.82.95-1.61,2.37-.96,1.6-2.54,1.83-3.57,1.01-.51-.51-1.06-.81-1.53-1.51-.02-.02-.03-.05-.05-.07-.48-.55-.85-1.1-1.43-1.65-.05-.05-.06-.07-.07-.14-.11-.52-.02-1.38,1.09-1.04.05.02.08.02.13.02,1.09-.04,1.62-.06,1.62-1.05,0-.17.01-.19.1-.34.45-.75,1.88-2.87.25-2.68-.05,0-.1,0-.14.01-.07,0-.11,0-.18.02-.73.12-2.15-.46.32-1.58,2.14-.22,2.81.94,4.53-1.57.78-1.91-.77-3.74-2.98-2.29-1.36.7-3.14,1.95-4.38,2.88-.73.52-.96.87-1.19,1.55-.38,1.26-2.05,1.02-1.92-1.56.03-1.03,3.61-3.32,5.31-4.71,1.25-1.02,2.8-2.52,3.91-4.44.31-.55.22-1.59-.97-.55-.98.48-1.73,1.91-2.49,1.75-.55-.08-.65-.4-1.09-.78-.26-.24-.47-.43-.56-.77-.03-.09-.04-.12-.09-.2-.09-.13-.14-.28-.12-.46,0-.27.33-.79.55-.96h0Zm2.18,18.96c-.43.09-2.26-.19-.71,1.3,1.14.87,1.53.11,1.7.07.26-.19.93-1.83-.99-1.38h0Zm-2.13-19l-.11.09.11-.09Z"/>
      </g>
      <path class="cls-1" d="m2.45,32.25v-2.18h2.07v-.86h-2.07v-1.22h2.21v-.86H1.37v5.11h1.08Zm6.61-5.11v2.79c.02.61-.06,1.02-.22,1.24-.17.26-.46.39-.88.39s-.73-.13-.91-.39c-.17-.22-.24-.64-.22-1.24v-2.79h-1.11v3.21c.04,1.27.78,1.93,2.24,1.96,1.42-.04,2.16-.69,2.21-1.96v-3.21h-1.11Zm2.22,5.11h3.92v-.86h-2.57l2.51-3.4v-.86h-3.7v.86h2.38l-2.54,3.4v.86h0Zm6.09,0v-2.24h1.96v2.24h1.08v-5.11h-1.1v2.02h-1.94v-2.02h-1.08v5.11h1.08Zm6.67.06c1.57-.04,2.38-.9,2.43-2.6-.06-1.75-.87-2.64-2.43-2.68-1.58.04-2.4.93-2.46,2.68.04,1.69.86,2.56,2.46,2.6h0Zm0-4.48c.85,0,1.27.63,1.27,1.88s-.42,1.85-1.27,1.85-1.3-.62-1.3-1.85.43-1.88,1.3-1.88h0Zm7-.69v2.79c.02.61-.06,1.02-.22,1.24-.17.26-.46.39-.88.39s-.73-.13-.91-.39c-.16-.22-.24-.64-.22-1.24v-2.79h-1.11v3.21c.04,1.27.78,1.93,2.24,1.96,1.42-.04,2.16-.69,2.21-1.96v-3.21h-1.11Zm7.46,0v2.79c.02.61-.06,1.02-.22,1.24-.17.26-.46.39-.88.39s-.73-.13-.91-.39c-.17-.22-.24-.64-.22-1.24v-2.79h-1.11v3.21c.04,1.27.78,1.93,2.24,1.96,1.42-.04,2.16-.69,2.21-1.96v-3.21h-1.11Zm7.11,5.11v-5.11h-1.02v4.01l-.03.03-1.94-4.04h-1.63v5.11h1.02v-4.23l.03-.03,1.99,4.26h1.58Zm2.35-5.11h-1.11v5.11h1.11v-5.11h0Zm2.77,5.11h1.19l1.88-5.11h-1.08l-1.33,4.04h-.03l-1.33-4.04h-1.19l1.88,5.11h0Zm3.93,0h3.51v-.86h-2.4v-1.35h2.16v-.86h-2.16v-1.19h2.32v-.86h-3.43v5.11h0Zm5.81-4.26h.91c.52-.02.77.19.77.64,0,.48-.26.72-.77.72h-.91v-1.35h0Zm0,2.21h1.16c.28,0,.43.22.47.66.02.48.08.94.19,1.38h1.19c-.13-.2-.22-.61-.28-1.22,0-.04,0-.09-.03-.17-.04-.74-.34-1.11-.91-1.13v-.03c.68-.17,1.03-.58,1.05-1.24-.02-.87-.61-1.31-1.77-1.33h-2.18v5.11h1.11v-2.05h0Zm7.83-1.6c-.05-1-.64-1.52-1.74-1.58-1.36.07-2.07.64-2.13,1.69,0,.68.56,1.15,1.69,1.41.04.02.1.04.19.06.65.13.97.37.97.72-.02.42-.36.64-1.02.66-.57-.04-.86-.35-.86-.94h-1.11c-.02,1.12.64,1.69,1.96,1.69,1.44-.04,2.17-.59,2.18-1.66.02-.7-.57-1.17-1.77-1.41-.07-.02-.12-.03-.14-.03-.66-.09-.98-.33-.94-.72.02-.4.29-.63.83-.66.53,0,.81.26.83.77h1.05Zm2.38-1.46h-1.11v5.11h1.11v-5.11h0Zm.89.86h1.52v4.26h1.11v-4.26h1.52v-.86h-4.15v.86h0Zm6.45,4.26h1.08v-1.66l1.71-3.46h-1.1l-1.08,2.35-1.05-2.35h-1.3l1.74,3.46v1.66Z"/>
    </g>
  </g>
</svg>