<svg width="466" height="466" xmlns="http://www.w3.org/2000/svg" xmlns:xlink="http://www.w3.org/1999/xlink" xml:space="preserve" overflow="hidden"><defs><clipPath id="clip0"><rect x="407" y="127" width="466" height="466"/></clipPath></defs><g clip-path="url(#clip0)" transform="translate(-407 -127)"><path d="M639.935 127C768.653 126.928 873.059 231.216 873.131 359.935 873.203 488.653 768.914 593.059 640.196 593.131 511.478 593.203 407.072 488.914 407 360.196 407 360.108 407 360.022 407 359.935 407 231.288 511.288 127 639.935 127ZM676.273 552.086C675.489 549.08 673.267 547.772 669.346 548.034 666.071 548.378 663.682 551.291 663.986 554.57 663.986 556.53 665.686 558.23 668.3 559.537 666.12 560.447 664.793 562.677 665.032 565.027 665.947 568.164 668.3 569.602 672.352 569.341 675.913 569.062 678.59 565.977 678.365 562.413 678.365 560.06 676.273 558.36 673.136 557.184 675.663 555.615 676.709 553.916 676.273 552.086ZM675.359 564.504C675.359 562.805 673.528 561.236 669.607 560.06 668.514 561.209 668.116 562.852 668.561 564.373 668.561 567.118 670.261 568.426 672.483 568.164 674.211 568.045 675.515 566.547 675.396 564.818 675.389 564.713 675.377 564.609 675.359 564.504ZM673.136 552.609C673.136 550.125 671.437 549.08 669.346 549.21 667.905 549.308 666.816 550.555 666.914 551.996 666.925 552.158 666.951 552.32 666.993 552.478 666.993 554.308 668.823 555.746 671.96 556.661 673.01 555.594 673.451 554.072 673.136 552.609ZM646.993 559.929 647.908 559.929C648.693 559.435 649.596 559.163 650.523 559.145 653.137 559.145 654.444 560.844 654.575 563.981 654.705 567.118 653.529 568.295 651.568 568.426 649.608 568.556 650.261 568.426 649.608 567.118 648.954 565.811 648.3 565.55 647.516 565.55 646.732 565.55 645.948 565.55 645.817 567.38 645.686 569.21 647.647 569.602 650.523 569.733 655.62 569.733 658.235 566.857 658.496 562.413 658.513 558.658 655.484 555.601 651.73 555.584 651.502 555.583 651.273 555.593 651.045 555.615 650.134 555.491 649.211 555.491 648.3 555.615L648.3 551.563 656.143 551.563 656.143 547.642 655.098 547.642C655.098 547.642 655.098 547.642 653.921 547.642L647.516 547.642 647.516 558.23ZM629.216 570.255C635.579 569.56 640.503 564.36 640.85 557.968 640.85 552.348 638.497 549.341 633.922 548.949 630.243 548.804 627.143 551.668 626.998 555.347 626.993 555.481 626.991 555.613 626.994 555.746 626.63 558.902 628.894 561.754 632.05 562.117 632.194 562.134 632.339 562.146 632.484 562.151 633.692 562.124 634.868 561.762 635.882 561.105 635.182 565.052 632.288 568.25 628.432 569.341L629.216 570.255ZM631.307 555.223C631.307 558.883 631.307 560.583 633.53 560.583 634.506 560.505 635.447 560.192 636.275 559.668 636.275 558.23 636.275 557.053 636.275 556.138 636.275 552.086 635.49 550.125 633.66 550.125 631.83 550.125 631.046 551.694 631.046 555.223ZM619.02 548.818 617.19 548.818C615.169 550.674 612.819 552.137 610.262 553.132L610.262 554.047C611.654 553.751 613.013 553.313 614.314 552.74L613.007 567.249C613.011 567.899 612.488 568.428 611.839 568.433 611.792 568.433 611.746 568.431 611.7 568.426L609.609 568.426 609.609 569.471 620.197 570.517 620.197 569.341 617.974 569.341C617.19 569.341 616.798 569.341 616.929 567.903L618.497 549.341ZM720.063 550.125C719.148 555.093 723.854 556.4 725.945 556.923 728.186 556.543 729.835 554.619 729.867 552.348 729.867 551.433 728.429 550.256 724.769 549.603 723.2 549.603 720.717 548.426 720.063 549.603ZM701.502 536.008C706.077 545.681 705.423 546.335 703.462 548.165 703.022 548.592 702.483 548.906 701.894 549.08 696.273 550.387 697.188 552.217 697.188 554.047 697.188 555.877 697.188 554.047 697.188 554.962 698.404 556.102 699.971 556.794 701.632 556.923 702.678 556.923 703.854 555.877 704.769 556.008 705.684 556.138 705.946 558.622 705.946 561.105 705.946 563.589 705.946 565.027 709.737 564.896 711.044 564.896 711.567 562.543 711.436 562.151 710.782 559.668 707.907 552.87 711.436 549.08L711.436 549.08C715.173 544.46 719.911 540.75 725.292 538.23 725.292 538.23 725.292 538.23 725.292 538.23 725.292 538.23 725.292 533.263 720.325 533.525L719.54 533.525C718.102 534.309 717.318 536.139 716.142 537.707 714.965 539.276 713.005 540.714 711.567 542.282 710.129 543.851 708.429 546.596 706.992 539.537L706.992 538.492C706.992 537.185 705.162 535.093 703.724 533.525L703.724 533.525C702.939 533.525 700.587 531.695 699.802 535.093 699.802 535.877 699.802 536.139 699.802 536.923ZM590.524 544.243C590.086 545.413 589.865 546.654 589.871 547.903 589.871 550.518 588.171 550.518 587.126 551.694 586.08 552.87 587.126 553.785 588.433 553.393L589.086 553.393C590.182 552.673 591.369 552.102 592.616 551.694L593.792 551.694C595.099 551.694 597.321 550.125 596.145 548.949L596.145 548.949C595.375 548.359 594.937 547.434 594.969 546.465 594.969 546.465 594.969 546.465 594.969 545.681 594.969 542.544 591.962 543.59 591.178 545.681ZM568.695 522.544C567.518 521.629 565.166 523.982 563.335 525.159 561.466 526.892 559.455 528.466 557.323 529.865L557.323 529.865C555.528 532.186 553.561 534.372 551.44 536.4L551.44 536.4C547.012 538.14 543.507 541.645 541.767 546.073L541.767 546.073C541.767 547.119 541.767 548.818 543.075 549.341L543.075 549.341C543.808 548.095 544.421 546.782 544.905 545.42 545.995 543.996 547.22 542.684 548.565 541.498 548.565 541.498 550.003 540.845 550.395 541.498 550.787 542.152 551.179 542.805 552.617 541.498 553.317 541.039 553.937 540.464 554.447 539.799 554.447 539.799 554.447 539.799 554.447 539.799 555.384 537.698 557.287 536.186 559.545 535.747 562.813 535.747 566.342 536.531 565.035 538.492L565.035 538.492C562.624 542.245 559.41 545.416 555.623 547.772 549.349 551.433 547.78 551.563 546.081 549.864 545.31 549.342 544.397 549.069 543.467 549.08 543.467 549.08 543.467 549.08 543.467 549.08 542.63 550.057 542.63 551.5 543.467 552.478L543.467 552.478C545.086 554.425 547.669 555.286 550.133 554.7L550.133 554.7C555.249 553.183 559.798 550.18 563.205 546.073 563.436 545.703 563.75 545.39 564.12 545.158 565.166 544.374 565.95 543.72 565.296 546.073 564.607 547.566 564.607 549.286 565.296 550.779L565.296 552.348C565.335 553.048 565.56 553.725 565.95 554.308L565.95 554.308 565.95 555.093C567.649 556.792 570.263 554.439 571.048 553.393 572.467 552.078 573.274 550.23 573.27 548.295 573.27 545.42 575.231 546.857 575.623 548.295L575.623 548.295C581.07 553.026 581.655 561.274 576.93 566.726 572.878 570.778 567.388 567.772 567.257 568.818 567.126 569.863 570.133 573.131 572.747 572.87L574.708 572.87C577.714 571.824 582.681 568.818 582.42 558.491 582.057 552.933 579.406 547.775 575.1 544.243 574.559 543.642 574.156 542.927 573.923 542.152 573.291 541.003 572.449 539.983 571.44 539.145 571.031 538.594 570.721 537.974 570.525 537.315L570.525 537.315C570.656 536.624 570.656 535.915 570.525 535.224L570.525 534.57C570.525 533.786 570.525 532.479 568.826 532.348 567.897 532.538 567.237 533.362 567.257 534.309 568.956 537.185 565.558 537.446 563.728 535.485 561.898 533.525 561.505 535.485 560.46 535.485 559.414 535.485 559.153 534.832 560.46 533.786 563.597 530.387 572.224 526.074 570.002 523.721ZM567.78 541.106C567.126 542.021 567.78 542.675 565.95 543.851 564.12 545.027 565.95 545.42 567.388 544.766 568.826 544.112 567.388 543.982 569.479 543.328 571.571 542.675 569.479 539.668 567.78 541.106ZM567.78 547.903C567.661 548.859 567.661 549.825 567.78 550.779L567.78 550.779C568.564 553.785 570.394 552.609 571.048 550.779 571.397 549.584 571.397 548.314 571.048 547.119 571.048 546.335 569.871 543.982 567.649 547.119ZM532.748 506.074C532.748 504.506 531.18 504.767 530.395 504.636L530.395 504.636C528.619 504.903 526.812 504.903 525.036 504.636 523.206 503.983 522.029 501.369 519.938 502.545L519.938 502.545C519.154 503.46 519.938 504.375 519.938 505.029 519.938 505.682 521.376 505.029 521.637 506.074 521.899 507.12 521.637 507.251 520.853 507.381L519.284 508.427 519.284 508.427C518.814 508.299 518.317 508.299 517.847 508.427L517.847 508.427 515.494 509.342 513.533 509.342 512.487 509.342 511.572 511.042C511.572 511.042 511.572 511.042 511.572 511.042 510.968 511.27 510.396 511.577 509.873 511.957 508.827 512.61 508.174 513.394 507.259 513.525L507.259 513.525C506.155 514.715 504.877 515.728 503.468 516.531 501.93 517.611 500.261 518.49 498.501 519.146L498.501 519.146C497.158 520.202 496.724 522.046 497.455 523.59 498.631 524.505 500.461 521.76 501.769 520.714 503.076 519.669 504.121 519.407 505.167 518.623 506.213 517.839 507.52 516.009 508.304 515.617 510.035 514.41 511.991 513.566 514.056 513.133 515.363 513.133 519.154 511.826 518.369 514.179 517.585 516.531 516.539 515.486 515.624 516.139 514.707 516.979 513.644 517.644 512.487 518.1 511.049 520.322 512.487 522.022 512.487 522.022 517.454 523.59 520.461 523.721 519.677 527.904 518.113 531.01 515.593 533.53 512.487 535.093 510.265 535.747 506.866 536.008 506.213 534.047 505.559 532.087 507.52 533.132 508.043 532.479 508.566 531.825 508.043 531.302 508.043 530.78 508.043 530.257 509.089 530.126 510.004 529.603 510.919 529.08 512.749 527.773 511.964 526.597 510.919 523.329 507.389 524.636 505.69 524.636 503.991 524.636 504.514 524.636 504.252 523.721 504.008 523.129 503.452 522.725 502.814 522.675 501.638 522.675 500.592 523.721 499.677 524.505 498.762 525.289 498.762 525.42 498.762 525.943 498.762 526.466 498.762 528.819 498.762 529.211 498.762 529.603 500.461 529.995 501.376 530.518 502.291 531.041 501.376 532.087 500.331 532.217 499.285 532.348 498.239 532.217 498.109 532.217 497.978 532.217 499.677 533.263 500.069 533.394 500.789 533.451 501.326 534.08 501.269 534.8 501.265 534.855 501.257 534.909 501.246 534.962L501.246 534.962C501.218 536.172 501.949 537.268 503.076 537.707L503.076 537.707C505.363 538.596 507.855 538.822 510.265 538.361 511.741 538.147 513.088 537.404 514.056 536.27L514.056 536.27C514.771 535.941 515.398 535.449 515.886 534.832L515.886 534.832C516.716 534.287 517.464 533.626 518.108 532.871 519.807 530.518 522.944 528.819 521.376 524.767 519.807 520.714 517.324 521.629 515.363 520.061L515.363 520.061C515.078 519.721 515.078 519.224 515.363 518.884L515.363 518.884C515.363 518.884 516.017 518.884 516.409 518.884 516.942 518.812 517.442 518.585 517.847 518.231 517.847 517.577 517.847 516.924 519.154 516.401 520.461 515.878 522.552 515.617 522.552 513.917 522.552 512.218 522.552 512.741 520.984 511.957 519.415 511.172 519.284 511.172 519.154 510.519 519.023 509.865 520.199 509.734 520.722 509.342L520.722 509.342C521.589 509.154 522.425 508.845 523.206 508.427 524.66 508.053 526.15 507.834 527.65 507.774 529.349 507.774 530.787 507.774 530.526 505.813ZM517.324 499.016C514.056 499.016 509.219 499.016 505.69 498.362L505.69 498.362C504.45 498.707 503.139 498.707 501.899 498.362L501.899 498.362C499.808 497.447 500.723 496.663 499.808 495.879L499.808 495.879C499.808 495.879 498.631 495.879 497.847 495.879L497.847 495.879C496.54 498.231 496.801 500.715 497.847 501.369L497.847 501.369C498.812 502.229 500.088 502.655 501.376 502.545L501.376 502.545C502.161 502.545 501.376 503.46 501.376 504.114L501.376 504.114C500.775 504.257 500.148 504.257 499.546 504.114L498.501 504.114C496.534 505.334 494.279 506.012 491.965 506.074 489.089 506.074 487.128 504.898 484.776 507.251L484.776 507.251C483.599 509.342 483.599 510.519 484.122 510.911 484.645 511.303 487.39 510.911 488.958 510.911L488.958 510.911C489.766 510.651 490.635 510.651 491.442 510.911 493.926 511.695 492.357 513.133 491.442 513.656 487.39 516.531 487.651 518.754 488.305 519.538L488.305 519.538C489.002 520.061 489.961 520.061 490.658 519.538L490.658 519.538 491.703 518.884 491.703 518.884 491.703 518.884 491.703 518.884 492.488 518.884 492.488 518.884C493.664 517.708 493.403 517.185 495.233 515.094L495.233 514.44C496.279 512.479 497.324 514.44 498.109 514.44 498.893 514.44 498.109 514.44 498.893 515.224 499.677 516.009 500.331 515.878 501.115 515.878L501.115 515.878C502.291 515.878 505.167 515.878 504.775 513.264 504.383 510.649 503.206 513.264 502.291 513.264L502.291 513.264C501.295 513.435 500.349 512.766 500.178 511.77 500.136 511.528 500.144 511.281 500.2 511.042L500.2 511.042C499.99 510.405 499.99 509.717 500.2 509.081L500.2 509.081 501.246 508.427 506.736 506.074 506.736 506.074C507.344 506.132 507.957 506.132 508.566 506.074L509.35 506.074 510.526 506.074 511.572 506.074 512.487 506.074 511.572 506.074C512.062 505.644 512.643 505.332 513.272 505.159L513.272 505.159C514.709 504.375 519.284 503.591 518.892 502.022L518.892 502.022C518.892 501.369 518.892 500.976 517.062 500.584ZM511.572 487.905C511.572 488.558 511.572 488.82 511.572 489.212 511.572 489.604 511.572 490.258 511.572 491.173 511.535 491.608 511.535 492.045 511.572 492.48L511.572 492.48C511.395 493.166 511.395 493.885 511.572 494.571L511.572 494.571C511.572 494.571 511.572 494.571 512.618 495.225L512.618 495.225C513.474 495.69 514.507 495.69 515.363 495.225 515.363 495.225 515.363 495.225 515.363 494.441L515.363 494.441C515.363 493.526 515.363 493.134 515.363 492.611L515.363 492.611 515.363 490.911 515.363 490.911C514.614 489.846 513.784 488.841 512.879 487.905L512.879 487.905C511.572 487.251 511.18 487.905 510.788 487.905L511.572 487.905ZM749.474 500.976C748.949 502.14 748.949 503.473 749.474 504.636L749.474 504.636C749.474 506.728 751.173 506.466 752.35 506.336 753.526 506.205 755.225 506.336 755.487 503.46 755.748 500.584 756.271 500.846 754.18 500.323L754.18 500.323C753.705 500.231 753.216 500.231 752.742 500.323L752.742 500.323C751.992 499.817 751.009 499.817 750.258 500.323L750.258 500.323ZM753.526 496.401C753.275 497.211 753.275 498.076 753.526 498.885 753.526 498.885 753.526 498.885 754.311 499.539L754.311 499.539C754.903 499.748 755.548 499.748 756.141 499.539 757.448 499.539 757.971 499.539 759.147 499.539 760.323 499.539 760.977 495.094 762.546 492.872 764.114 490.65 765.16 491.042 765.029 492.872 764.517 497.382 763.327 501.789 761.5 505.944 759.408 510.78 754.311 519.93 755.356 521.76 757.578 526.204 761.238 524.244 760.846 521.76 760.551 520.258 760.882 518.7 761.761 517.447 763.505 513.566 765.514 509.81 767.774 506.205 770.781 500.454 775.748 501.238 776.14 506.205 775.094 512.872 772.611 511.957 768.428 515.486 764.245 519.015 768.428 519.93 769.343 518.623L769.343 518.623 769.343 518.623C772.48 515.878 771.565 521.629 771.434 523.459 771.361 523.716 771.361 523.988 771.434 524.244 772.48 525.943 771.434 526.727 769.212 528.427 766.99 530.126 769.212 528.427 769.212 528.427 766.598 529.472 767.251 531.041 767.905 531.695L767.905 531.695C769.4 531.871 770.884 532.132 772.349 532.479L772.349 532.479C773.868 532.675 775.405 532.675 776.924 532.479 780.437 532.029 783.098 529.091 783.199 525.551 783.199 522.022 780.584 521.629 784.114 519.277 787.643 516.924 788.166 513.394 783.46 514.309L783.46 514.309C782.284 514.963 781.63 516.401 778.885 518.623L778.885 518.623C777.709 519.669 774.702 521.629 775.486 516.793L775.486 516.793C775.115 514.977 775.709 513.099 777.055 511.826 780.323 507.12 781.107 497.578 774.702 497.709 772.611 497.709 768.166 501.499 769.735 496.663 769.735 496.009 769.735 495.617 769.735 494.571L769.735 494.571C769.735 491.434 771.173 486.598 767.251 487.643L767.251 487.643C766.735 487.521 766.199 487.521 765.683 487.643L765.683 487.643C764.132 488.569 762.76 489.765 761.631 491.173L761.631 491.826C759.931 493.134 759.278 494.833 756.533 495.486 753.788 496.14 754.311 495.486 753.657 497.055ZM776.663 525.159C775.879 525.943 771.957 528.165 776.663 528.427 781.369 528.688 779.931 526.335 780.192 526.074 780.454 525.812 780.192 521.629 776.794 525.159ZM753.526 496.271 753.526 496.271ZM431.444 331.308 433.143 322.289C433.143 320.459 434.712 319.674 437.457 320.066L437.457 318.498 431.052 317.452 427.522 340.458 429.091 340.458 429.091 340.458C429.091 338.367 430.79 337.713 433.535 338.236L451.835 341.112C453.796 341.112 454.58 342.288 454.057 344.249L454.057 344.249 455.757 344.249 457.979 331.177 456.149 331.177 456.149 332.092C456.149 334.314 454.58 335.099 451.705 334.445L444.385 333.269 445.561 326.21C445.561 323.857 446.999 322.942 449.221 323.465L449.221 321.635 440.071 320.197 440.071 322.027C442.424 322.027 443.339 323.596 442.685 326.472L441.64 332.877 431.444 331.308ZM443.208 287.649 443.208 287.649C444.123 285.165 445.953 284.643 448.96 285.95L459.286 290.133C463.427 291.402 465.755 295.789 464.485 299.93 464.302 300.527 464.049 301.1 463.73 301.636 461.639 306.603 458.24 308.302 453.665 306.472L440.594 301.374C439.174 300.844 438.453 299.262 438.984 297.842 439.11 297.504 439.302 297.194 439.548 296.93L439.548 296.276 437.98 295.623 432.489 308.694 434.189 308.694 434.189 307.91C434.376 306.479 435.688 305.469 437.12 305.656 437.521 305.709 437.905 305.854 438.241 306.08L451.312 311.178C457.718 313.661 462.554 311.178 466.083 302.551 469.279 297.228 467.554 290.322 462.231 287.126 461.509 286.694 460.74 286.342 459.94 286.081L449.221 281.767C446.737 280.852 446.084 279.153 447.26 276.538L447.26 276.538 446.215 276.015 441.77 286.995 443.47 286.995ZM480.462 253.532 479.547 255.101C481.052 256.323 482.296 257.834 483.207 259.545 483.733 260.709 483.733 262.042 483.207 263.205L476.148 275.493 465.299 245.82 463.077 244.644 450.005 267.65 456.541 271.963 457.195 270.787C454.188 268.695 453.404 266.604 454.973 264.251L461.116 253.402 471.312 283.074 473.534 284.381 488.043 258.63 480.462 253.532ZM502.422 237.716 503.729 238.892 513.272 227.52 511.572 226.344 511.572 226.344C510.004 228.435 508.435 228.566 506.605 226.997L492.357 215.625C490.527 214.318 490.527 212.749 492.357 210.919L492.357 210.919 490.919 209.743 481.377 221.115 482.815 222.291 482.815 222.291C484.383 220.069 486.083 219.939 487.782 221.507L493.403 226.213 483.468 237.847 477.848 233.141C476.018 231.834 475.887 230.134 477.848 228.304L477.848 228.304 476.541 227.128 466.998 238.5 468.305 239.546 468.305 239.546C469.339 238.246 471.23 238.031 472.53 239.065 472.708 239.206 472.87 239.368 473.011 239.546L487.128 251.441C488.428 252.475 488.643 254.366 487.61 255.665 487.468 255.844 487.307 256.005 487.128 256.147L487.128 256.8 488.566 257.977 499.416 244.644 498.501 242.944 498.501 242.944C498.97 244.569 498.034 246.266 496.409 246.735 494.785 247.204 493.088 246.268 492.619 244.644L486.213 239.284 496.017 227.52 502.291 232.749C503.663 233.807 503.917 235.777 502.858 237.149 502.694 237.361 502.504 237.552 502.291 237.716L502.291 237.716ZM506.736 214.449C512.406 220.513 521.918 220.832 527.983 215.162 528.228 214.932 528.466 214.694 528.696 214.449 535.818 209.775 537.803 200.212 533.129 193.09 532.966 192.841 532.795 192.597 532.617 192.358 527.424 186.067 518.114 185.177 511.823 190.37 511.415 190.706 511.026 191.064 510.657 191.443 503.23 196.309 501.153 206.275 506.019 213.702 506.245 214.047 506.484 214.383 506.736 214.71ZM510.657 208.436C516.801 215.364 522.814 216.932 528.565 213.011 534.317 209.089 533.01 203.991 528.565 197.717 524.121 191.443 516.539 189.482 511.572 193.403 506.605 197.325 506.866 202.553 511.572 208.436ZM553.924 168.306 553.924 168.306C556.277 166.999 558.107 168.306 559.414 170.79L564.381 180.855C566.551 184.687 565.205 189.552 561.372 191.722 560.916 191.981 560.435 192.194 559.937 192.358 556.781 194.648 552.368 193.947 550.078 190.792 549.725 190.307 549.437 189.779 549.218 189.22L543.205 176.933C542.36 175.675 542.694 173.969 543.953 173.124 544.204 172.955 544.481 172.829 544.774 172.75L545.427 172.75 544.643 171.051 531.572 177.456 532.356 179.025 533.271 179.025C533.95 177.833 535.467 177.418 536.659 178.097 537.132 178.367 537.503 178.785 537.715 179.286L543.728 191.573C546.865 197.717 552.486 198.893 560.46 195.103 566.423 193.374 569.856 187.138 568.126 181.175 567.937 180.525 567.69 179.892 567.388 179.286L562.29 168.829C560.983 166.476 562.29 164.777 564.381 163.6L564.381 163.6 563.858 161.509 553.14 166.215 553.924 167.914ZM642.287 151.444 642.287 151.444C645.033 151.444 646.209 152.882 646.078 156.019L646.078 167.26C646.078 172.75 643.072 175.626 637.059 175.757 631.046 175.888 629.216 173.142 629.216 168.175L629.216 155.104C629.216 153.012 630.262 152.097 632.484 152.097L633.137 152.097 633.137 149.614 618.759 149.614 618.759 151.444 619.674 151.444C621.896 151.444 623.072 152.228 622.942 154.45L622.942 167.522C622.942 174.319 627.517 177.848 636.013 177.979 644.51 178.11 649.085 173.927 649.085 166.084L649.085 155.234C649.085 152.489 650.392 151.313 653.268 151.444L653.268 151.444 653.268 149.614 642.287 149.614 642.287 151.444ZM665.163 157.587 683.724 183.73 686.208 183.73 689.606 159.417C689.606 157.718 691.175 157.065 693.789 157.587L693.789 157.587 693.789 155.757 682.025 154.058 682.025 155.888 682.025 155.888C683.255 155.907 684.446 156.319 685.424 157.065 685.814 158.119 685.814 159.278 685.424 160.332L683.463 174.057 668.431 152.228 659.15 150.921 659.15 152.751C660.401 152.879 661.585 153.38 662.548 154.189L659.673 175.234C659.673 177.195 658.235 177.979 655.882 177.587L655.882 177.587 655.359 179.286 666.47 180.855 666.47 179.155C663.202 179.155 661.895 177.456 662.548 174.711L664.901 157.587ZM700.587 160.463 700.587 160.463C702.168 160.607 703.333 162.007 703.189 163.588 703.151 164.007 703.02 164.413 702.809 164.777L697.188 182.423C697.188 184.515 695.227 185.168 693.005 184.384L693.005 184.384 693.005 186.083 706.861 190.658 706.861 188.959 706.861 188.959C704.377 188.959 703.593 186.868 704.508 184.515L710.129 167.26C710.418 165.625 711.977 164.534 713.612 164.823 713.95 164.883 714.275 165 714.573 165.169L714.573 165.169 715.227 163.47 701.24 159.025 701.24 160.725ZM721.762 197.194 724.377 198.371 742.154 181.77C744.768 179.155 747.121 178.371 749.082 179.548L749.082 179.548 749.735 177.848 739.017 173.142 738.363 174.711 739.278 174.711C741.5 175.757 742.154 176.933 740.847 178.11L727.775 191.181 727.775 174.057C727.775 172.489 727.775 171.443 728.821 171.051 730.003 170.622 731.299 170.622 732.481 171.051L732.481 171.051 733.788 170.659 719.148 164.123 717.71 166.215 717.71 166.215C718.659 166.577 719.479 167.214 720.063 168.045 720.298 169.209 720.298 170.409 720.063 171.574L720.063 197.717ZM771.565 197.194C773.134 197.978 773.134 199.808 771.565 202.423L773.003 203.468 776.532 197.848 756.01 182.685 754.833 184.123 754.833 184.123C757.099 185.691 757.491 187.39 756.01 189.22L744.768 203.991C743.592 205.821 741.893 206.083 739.932 203.991L738.494 202.946 737.971 205.429 759.931 221.769 764.637 216.279 763.199 215.233C760.716 217.586 758.363 217.716 756.271 215.233L749.997 210.658C748.82 210.004 748.82 209.089 749.997 207.651L754.964 200.985 760.454 205.168C763.068 206.867 763.591 208.566 761.892 210.266L763.33 211.311 768.82 203.991 767.382 202.946C766.468 204.245 764.675 204.558 763.376 203.645 763.104 203.454 762.867 203.217 762.676 202.946L756.663 198.371 762.807 190.135 770.911 196.279ZM779.8 223.337 782.153 226.082C782.136 228.644 781.784 231.193 781.107 233.664 780.682 235.295 780.376 236.955 780.192 238.631 780.078 240.1 780.302 241.575 780.846 242.944 782.012 244.748 783.323 246.453 784.767 248.042L786.597 250.134 787.774 249.219C786.25 247.402 785.541 245.039 785.813 242.683 785.813 241.376 785.813 239.415 786.859 236.932 787.324 234.822 787.63 232.681 787.774 230.527 790.666 233.018 794.946 233.018 797.839 230.527 799.343 229.249 800.244 227.4 800.322 225.429 800.322 222.466 798.362 218.544 794.44 213.664L789.211 208.174 786.074 205.429C785.737 205.158 785.43 204.851 785.159 204.514L783.199 205.429 783.199 206.213C785.029 208.174 785.029 209.873 783.199 211.311L769.474 223.206C767.774 224.906 765.944 224.644 764.245 222.422L764.245 222.422 762.807 223.599 773.395 235.755 774.702 234.579 773.787 233.533C772.379 232.523 772.056 230.563 773.067 229.155 773.266 228.878 773.51 228.634 773.787 228.435L779.016 223.86ZM791.303 213.403 781.238 222.161 782.414 223.599C786.336 228.043 789.865 228.827 793.133 225.821 796.401 222.814 796.27 219.416 793.133 215.364L791.564 213.403ZM788.297 252.617 788.95 253.663C789.313 253.453 789.763 253.453 790.126 253.663L790.126 255.232C790.889 257.218 791.807 259.141 792.872 260.983 794.843 265.242 799.892 267.097 804.151 265.126 806.674 263.958 808.466 261.63 808.949 258.892 809.336 256.029 809.336 253.127 808.949 250.265 808.949 246.082 808.949 243.467 810.257 242.683 811.564 241.899 813.786 242.683 815.485 244.513 817.475 247.601 817.097 251.65 814.57 254.317L815.616 255.755 821.237 250.918 821.237 250.134C821.237 250.134 821.237 250.134 821.237 250.134 821.237 250.134 820.583 250.134 820.452 249.48L820.452 248.304C819.889 246.447 819.052 244.685 817.969 243.075 814.44 238.369 810.518 237.193 806.466 239.415 803.205 242.387 802.067 247.038 803.59 251.18 804.721 254.375 804.019 257.934 801.76 260.46 799.554 261.834 796.652 261.16 795.278 258.954 795.213 258.849 795.151 258.74 795.094 258.63 792.937 255.357 793.432 251.008 796.27 248.304L795.355 246.735 789.081 252.356ZM823.851 259.937 823.851 259.937C824.835 261.183 824.624 262.992 823.378 263.977 823.055 264.231 822.681 264.414 822.282 264.512L805.943 272.878C804.113 274.055 802.544 272.878 801.499 271.31L801.499 271.31 799.93 272.094 806.597 285.165 808.165 284.381 808.165 283.728C806.989 281.505 807.381 279.937 809.603 279.022L825.289 270.787C826.851 269.882 828.85 270.414 829.755 271.975 829.85 272.138 829.929 272.31 829.995 272.486L829.995 272.486 831.563 271.702 824.897 258.63 823.328 259.415ZM838.36 296.015 840.19 301.113C840.678 302.33 840.678 303.687 840.19 304.904 839.095 306.066 837.814 307.038 836.4 307.779L838.36 310.001 846.203 306.341 846.203 304.773C845.343 304.65 844.688 303.94 844.635 303.073L837.053 282.42C837.004 281.987 837.004 281.547 837.053 281.113 836.983 280.768 836.983 280.413 837.053 280.068L837.053 278.76 828.688 280.852 828.688 282.682C830.231 282.283 831.849 282.283 833.393 282.682 834.178 282.682 834.831 283.858 835.354 285.558L837.315 290.786 816.531 296.93C814.44 297.845 813.002 296.93 812.087 294.708L812.087 293.27 810.387 293.27 816.008 308.956 817.707 308.302 817.707 307.256C816.531 304.642 817.707 302.943 819.537 302.42L838.36 296.015ZM833.393 336.798 846.465 342.157C847.535 342.442 848.521 342.981 849.341 343.726 849.952 344.594 850.395 345.57 850.648 346.602L852.478 346.602 851.432 336.144 849.602 336.144 849.602 336.144C849.602 337.452 849.602 338.236 849.602 338.759 849.602 339.282 848.164 338.759 846.726 338.759L837.445 335.099 845.55 325.949C845.55 325.949 846.726 325.164 847.38 325.949 847.862 326.554 848.177 327.275 848.295 328.04L848.295 328.694 849.994 328.694 847.118 313.792 845.419 313.792 845.419 313.792C845.606 314.654 845.606 315.545 845.419 316.406 845.1 317.163 844.607 317.835 843.981 318.367L833.001 330.524 826.596 331.831C824.505 331.831 823.198 331.831 822.805 329.086L822.805 327.779 820.975 327.779 823.982 343.334 825.812 343.334 825.812 342.68C825.812 339.935 825.812 338.367 828.426 338.105L834.57 336.929ZM838.36 367.647C832.368 367.647 827.511 372.504 827.511 378.496 827.511 384.488 832.368 389.346 838.36 389.346 844.352 389.346 849.21 384.488 849.21 378.496 849.21 372.504 844.352 367.647 838.36 367.647ZM439.94 369.738C433.948 369.738 429.091 374.596 429.091 380.588 429.091 386.58 433.948 391.437 439.94 391.437 445.932 391.437 450.79 386.58 450.79 380.588 450.79 374.596 445.932 369.738 439.94 369.738ZM639.935 201.116C552.149 201.26 481.102 272.541 481.247 360.327 481.391 448.113 552.672 519.159 640.458 519.015 728.192 518.87 799.218 447.669 799.146 359.935 799.146 272.221 728.041 201.115 640.327 201.115 640.196 201.115 640.065 201.115 639.935 201.116ZM635.229 362.288 635.229 438.756C648.3 483.33 735.618 491.042 754.049 438.756L754.049 361.895 635.621 361.895ZM638.627 294.969 638.627 331.047C663.594 361.372 730.128 349.608 745.291 330.132L745.291 294.577C738.783 293.212 732.061 293.212 725.553 294.577L725.553 319.151C712.482 336.929 668.038 335.883 657.973 319.151L657.973 294.316C651.655 292.486 644.946 292.486 638.627 294.316ZM596.406 331.7 598.89 466.86 621.373 465.945 618.105 331.569 596.406 331.569ZM527.912 261.114 527.912 279.022 620.589 279.022 620.589 261.245ZM526.997 295.361 526.997 315.491 562.682 315.491 562.682 475.356 585.165 475.356 586.995 315.099 622.68 315.099 622.68 295.361ZM528.696 330.132C530.783 374.917 529.429 419.797 524.644 464.376L545.427 465.291C549.644 420.413 550.997 375.312 549.48 330.262ZM632.484 259.676 632.484 272.748 655.882 272.748 655.882 289.741 692.09 305.165 731.305 289.871 731.305 272.486 751.173 272.486C752.013 287.786 756.493 302.666 764.245 315.884 767.643 319.936 778.231 314.707 773.787 310.394 768.743 304.123 765.572 296.557 764.637 288.564 763.33 284.512 766.075 273.924 760.585 270.656 759.278 270.656 752.219 272.748 752.611 269.61L752.611 260.33 632.484 260.33ZM655.359 378.365 655.359 402.679 686.861 402.679 686.861 378.627ZM701.502 378.365 701.502 402.94 733.788 402.94 733.788 378.104ZM701.502 418.495 701.502 456.272C713.67 453.59 724.85 447.569 733.788 438.887L733.788 418.364ZM655.49 418.495 655.49 439.41C663.701 448.788 675.126 454.757 687.515 456.141L687.515 418.495ZM639.935 185.822C543.702 185.822 465.691 263.833 465.691 360.065 465.691 456.298 543.703 534.309 639.935 534.309 736.167 534.309 814.178 456.298 814.178 360.065 814.178 360.022 814.178 359.978 814.178 359.935 814.178 263.775 736.225 185.822 640.065 185.822 640.022 185.822 639.978 185.822 639.935 185.822ZM639.935 190.789C546.447 191.15 470.952 267.23 471.313 360.718 471.674 454.205 547.754 529.7 641.242 529.339 734.525 528.98 809.936 453.218 809.865 359.935 809.793 266.446 733.948 190.716 640.459 190.788 640.284 190.788 640.11 190.788 639.935 190.789ZM639.935 135.235C515.764 135.091 414.987 235.634 414.843 359.804 414.699 483.974 515.242 584.751 639.412 584.896 763.582 585.039 864.358 484.497 864.504 360.327 864.504 360.196 864.504 360.065 864.504 359.935 864.504 235.888 763.982 135.307 639.935 135.235Z" fill-rule="evenodd"/></g></svg>