<svg width="573" height="161" xmlns="http://www.w3.org/2000/svg" xmlns:xlink="http://www.w3.org/1999/xlink" xml:space="preserve" overflow="hidden"><defs><clipPath id="clip0"><rect x="1310" y="1126" width="573" height="161"/></clipPath></defs><g clip-path="url(#clip0)" transform="translate(-1310 -1126)"><path d="M1329 1135.4C1329.63 1138.31 1331.65 1137.48 1333.11 1137.83 1335.2 1138.8 1335.61 1140.18 1338.61 1141.91 1339.23 1142.33 1340.9 1143.78 1342.71 1144.47 1342.85 1144.47 1342.92 1144.47 1342.99 1144.61 1345.85 1147.66 1346.75 1147.72 1348.7 1148.83 1348.84 1148.83 1348.91 1148.9 1349.05 1148.97 1349.88 1149.11 1351.28 1148.76 1353.09 1147.79 1353.29 1147.66 1353.5 1147.59 1353.71 1147.52 1356.64 1146.69 1360.39 1144.89 1361.79 1142.05 1362.34 1140.94 1361.72 1139.28 1360.95 1138.86 1360.81 1138.8 1360.67 1138.73 1360.6 1138.59 1358.31 1136.17 1356.29 1136.44 1354.83 1135.06 1354.69 1134.92 1354.55 1134.78 1354.41 1134.71 1352.81 1133.6 1350.86 1132.5 1349.26 1131.46 1348.98 1131.25 1348.84 1131.18 1348.56 1131.18 1344.31 1130.7 1340.28 1129.94 1335.2 1130 1334.99 1130 1334.92 1130 1334.71 1130.07 1329.63 1131.6 1329.28 1133.4 1329.07 1134.92 1329.07 1134.99 1329.07 1135.13 1329.07 1135.2 1329.07 1135.2 1329.07 1135.33 1329.07 1135.4Z" fill-rule="evenodd"/><path d="M1369.27 1147.89C1360.41 1154.8 1349.24 1167.64 1339.32 1174.68 1339.12 1174.82 1338.98 1174.96 1338.84 1175.17 1334.86 1180.4 1330.25 1183.68 1328.85 1184.1 1328.57 1184.17 1328.36 1184.17 1328.09 1184.31 1320.48 1187.31 1321.03 1183.05 1316.78 1183.4 1316.71 1183.4 1316.64 1183.4 1316.57 1183.4 1314.89 1183.96 1312.66 1185.56 1313.08 1189.68 1313.08 1189.75 1313.08 1189.82 1313.08 1189.89 1315.94 1199.1 1322.57 1204.19 1326.13 1203.84 1326.34 1203.84 1326.62 1203.84 1326.83 1203.84 1331.99 1204.05 1336.11 1200.35 1338.49 1198.12 1338.49 1198.12 1338.63 1197.98 1338.7 1197.98 1338.7 1197.98 1338.7 1197.98 1338.7 1197.98 1338.7 1197.98 1338.77 1197.98 1338.84 1197.98 1342.05 1196.73 1342.4 1198.96 1342.47 1201.68 1342.47 1201.82 1342.47 1201.96 1342.47 1202.1 1341.56 1204.82 1340.37 1206.49 1339.32 1207.96 1339.25 1208.1 1339.19 1208.17 1339.12 1208.31 1334.72 1219.26 1328.64 1224.91 1324.87 1227.84 1316.99 1234.61 1309.8 1236.98 1310 1248.49 1310 1248.77 1310 1248.98 1310.14 1249.26 1312.38 1257.14 1315.38 1260.14 1317.68 1259.93 1322.5 1259.93 1325.57 1251.7 1328.57 1247.03 1328.57 1247.03 1328.57 1246.89 1328.64 1246.89 1330.32 1243.82 1331.16 1242.28 1334.37 1240.12 1342.47 1235.93 1342.19 1243.4 1341.49 1246.54 1338.63 1263.77 1344.77 1268.58 1348.26 1269 1348.4 1269 1348.54 1269 1348.75 1269 1353.29 1268.37 1353.85 1265.72 1354.68 1263.56 1354.75 1263.35 1354.82 1263.14 1354.89 1262.93 1355.17 1261.61 1355.8 1260.35 1355.87 1258.88 1355.87 1258.47 1355.87 1258.19 1356.01 1257.84 1356.22 1256.86 1356.08 1256.44 1356.15 1255.95 1356.15 1255.75 1356.29 1255.47 1356.29 1255.19 1356.43 1254.42 1356.92 1253.58 1357.06 1252.68 1357.13 1252.19 1357.34 1251.63 1357.34 1251.14 1357.34 1245.84 1355.52 1245.07 1354.61 1235.17 1354.54 1234.12 1354.47 1233.28 1354.19 1232.3 1352.24 1224.91 1358.38 1225.89 1362.43 1226.03 1363.76 1226.03 1365.08 1225.96 1366.41 1226.1 1370.32 1226.58 1371.44 1224.21 1373.39 1222.68 1373.6 1222.54 1373.67 1222.4 1373.88 1222.26 1376.46 1219.12 1382.47 1210.61 1376.32 1206.77 1372.28 1205.45 1371.79 1210.12 1369.76 1212.21 1369.41 1212.56 1369.13 1212.98 1368.85 1213.33 1366.48 1216.19 1361.52 1218.42 1358.24 1213.05 1358.24 1213.05 1358.24 1212.91 1358.1 1212.91 1356.85 1211.17 1355.31 1210.19 1355.24 1206.77 1355.24 1206.7 1355.24 1206.63 1355.24 1206.49 1355.45 1204.19 1355.66 1203.63 1356.36 1201.96 1357.96 1198.96 1359.22 1197.42 1361.59 1192.05 1361.73 1191.77 1361.8 1191.63 1361.94 1191.42 1363.48 1189.68 1363.69 1187.31 1365.01 1185.49 1365.85 1184.45 1366.06 1183.89 1366.41 1182.91 1366.76 1181.38 1367.39 1179.91 1367.88 1178.45 1367.95 1178.24 1368.02 1178.1 1368.16 1177.96 1368.78 1176.98 1369.2 1176.36 1369.55 1175.03 1369.55 1174.96 1369.55 1174.89 1369.55 1174.82 1370.11 1172.31 1370.88 1170.22 1371.51 1168.75 1371.51 1168.61 1371.58 1168.54 1371.65 1168.4 1373.04 1163.1 1382.47 1149.98 1377.51 1147.05 1377.44 1147.05 1377.37 1146.99 1377.23 1146.92 1374.44 1146.22 1373.74 1144.96 1369.27 1147.61 1369.2 1147.61 1369.13 1147.68 1369.06 1147.75Z" fill-rule="evenodd"/><path d="M1424.62 1127.05C1419.32 1124.27 1417.43 1127.74 1415.27 1129.2 1415.13 1129.27 1415.06 1129.34 1414.99 1129.41 1409.27 1135.05 1406.2 1140.47 1401.94 1142.7 1396.01 1145.48 1386.45 1141.93 1384.28 1149.72 1384.28 1149.93 1384.28 1150.07 1384.28 1150.28 1384.63 1154.52 1388.19 1155.84 1391.4 1155.7 1394.19 1155.56 1396.15 1153.55 1398.1 1154.17 1401.24 1155.01 1400.13 1157.72 1399.57 1159.04 1398.45 1162.73 1398.52 1164.74 1398.17 1165.37 1398.1 1165.51 1398.03 1165.58 1397.96 1165.72 1397.12 1167.39 1395.66 1168.57 1395.52 1170.72 1395.52 1170.93 1395.45 1171.07 1395.38 1171.21 1394.05 1173.44 1392.87 1176.64 1392.03 1178.93 1391.61 1180.95 1389.8 1183.17 1388.68 1185.33 1388.12 1186.93 1387.42 1187.49 1386.86 1188.74 1386.1 1190.62 1385.54 1192.84 1384.77 1194.02 1384.56 1194.3 1384.49 1194.44 1384.35 1194.79 1383.72 1196.88 1382.96 1198.54 1382.61 1201.26 1381.7 1205.36 1382.12 1208.77 1380.23 1211.41 1380.03 1211.69 1380.03 1211.83 1380.03 1212.18 1379.54 1217.6 1380.37 1221.63 1378.28 1228.8 1377.23 1233.39 1376.95 1239.79 1375.21 1242.85 1375 1243.19 1375 1243.33 1375 1243.75 1375 1252.31 1380.72 1257.1 1383.44 1256.9 1388.89 1256.48 1386.24 1245.07 1386.93 1239.23 1387.28 1234.36 1389.45 1230.54 1390.08 1225.95 1390.77 1221.22 1389.52 1214.05 1390.35 1211.06 1392.17 1203.76 1394.68 1196.11 1398.38 1190.55 1400.96 1186.51 1407.87 1174.97 1411.57 1182.48 1412.2 1185.47 1410.32 1190.27 1409.69 1194.16 1409.41 1201.88 1408.01 1202.51 1407.1 1206.68 1408.57 1215.58 1415.27 1217.46 1417.36 1215.58 1433.14 1207.1 1441.23 1200.28 1449.4 1212.38 1454.42 1231.79 1451.63 1236.45 1449.4 1247.85 1445.56 1254.67 1437.88 1263.57 1431.74 1260.51 1430.14 1256.62 1432.51 1255.3 1432.02 1251.96 1431.46 1250.29 1428.53 1249.87 1428.53 1247.44 1428.39 1243.75 1429.44 1243.33 1430.49 1239.3 1431.81 1234.15 1432.93 1228.31 1427.83 1227.55 1417.22 1221.84 1411.78 1233.67 1407.87 1238.05 1406.48 1239.51 1405.08 1241.46 1401.87 1239.65 1400.82 1238.95 1398.66 1237.91 1395.66 1240.41 1392.03 1242.64 1392.8 1248.41 1392.59 1252.44 1392.59 1254.25 1392.59 1257.17 1393.7 1258.22 1396.43 1260.79 1401.17 1264.76 1403.27 1264.82 1407.31 1264.82 1409.76 1262.46 1413.25 1261.42 1417.43 1260.79 1417.08 1265.45 1414.5 1268.23 1412.9 1270.04 1408.92 1272.75 1410.32 1274.77 1412.69 1276.58 1416.53 1273.45 1417.85 1272.61 1421.2 1270.53 1423.44 1272.61 1424.62 1273.87 1424.62 1273.87 1424.76 1274.01 1424.83 1274.07 1429.37 1277.76 1432.3 1277.2 1436.42 1276.44 1436.56 1276.44 1436.63 1276.44 1436.77 1276.37 1443.61 1273.94 1449.68 1268.72 1455.75 1260.37 1458.96 1255.3 1460.01 1252.86 1460.08 1245.98 1460.08 1245.42 1460.08 1245.14 1460.29 1244.59 1461.33 1241.87 1461.54 1238.54 1461.26 1236.1 1461.26 1235.89 1461.26 1235.82 1461.26 1235.61 1461.68 1232.48 1462.31 1228.73 1461.82 1225.6 1460.29 1215.58 1463.71 1203.55 1450.03 1197.5 1438.51 1192.91 1432.3 1199.66 1423.44 1200.91 1423.3 1200.91 1423.16 1200.91 1423.02 1200.91 1422.04 1200.91 1420.37 1200.21 1420.09 1197.99 1420.09 1197.85 1420.09 1197.71 1420.09 1197.57 1420.37 1196.11 1421.34 1195.55 1422.18 1194.09 1422.88 1192.84 1423.51 1191.03 1423.72 1188.88 1423.72 1186.09 1421.2 1185.05 1422.53 1180.95 1423.99 1176.29 1428.95 1170.72 1424.9 1166.76 1423.23 1164.88 1421.34 1164.33 1415.97 1165.93 1412.9 1166.83 1410.04 1168.01 1408.01 1166.69 1405.64 1164.81 1408.57 1162.24 1409.06 1159.94 1409.06 1159.81 1409.06 1159.74 1409.2 1159.6 1410.94 1156.88 1411.99 1154.8 1413.11 1151.39 1414.99 1147.43 1418.97 1142.9 1422.53 1138.73 1426.37 1134.35 1429.65 1130.39 1424.76 1126.98Z" fill-rule="evenodd"/><path d="M1552.9 1138.12C1548.99 1136.94 1544.66 1144.93 1541.02 1149.23 1540.4 1149.93 1540.26 1150.35 1539.84 1151.25 1537.53 1156.88 1532.01 1162.5 1528.17 1168.2 1527.96 1168.48 1527.82 1168.69 1527.75 1169.04 1524.74 1175.91 1521.53 1185.22 1517.9 1190.44 1517.76 1190.64 1517.55 1190.85 1517.34 1191.06 1510.49 1197.94 1499.59 1208.78 1500.01 1224.34 1500.01 1224.69 1500.01 1224.9 1500.15 1225.24 1500.92 1227.95 1501.97 1232.54 1506.3 1232.54 1506.58 1232.54 1506.72 1232.54 1506.86 1232.26 1507.56 1230.8 1507.98 1224.2 1508.54 1220.59 1508.89 1218.37 1511.75 1212.88 1514.89 1207.39 1515.52 1206.42 1517.83 1204.33 1519.92 1206.83 1520.9 1208.08 1522.93 1209.54 1526 1206.14 1527.54 1203.98 1528.45 1202.52 1529.29 1200.23 1529.43 1199.88 1529.5 1199.61 1529.5 1199.19 1529.71 1197.52 1530.26 1194.88 1531.24 1193.28 1532.57 1190.78 1534.46 1186.96 1539.63 1184.74 1547.87 1181.47 1557.86 1181.33 1556.12 1187.38 1556.12 1187.59 1556.05 1187.8 1555.98 1187.93 1553.25 1201.2 1544.8 1211.9 1539 1219.69 1525.65 1234.62 1521.74 1236.22 1515.87 1233.09 1513.22 1231.84 1509.72 1232.68 1508.05 1233.23 1507.28 1233.51 1507.21 1233.79 1507.07 1234.55 1505.88 1240.18 1508.4 1242.2 1510.14 1243.38 1510.63 1243.66 1511.05 1244 1511.47 1244.35 1517.62 1249.49 1526.42 1246.57 1530.61 1244.42 1530.75 1244.35 1530.89 1244.21 1531.03 1244.14 1543.68 1234.62 1550.46 1228.65 1558.56 1210.79 1559.26 1209.19 1559.61 1208.29 1560.03 1207.6 1562.19 1204.96 1563.94 1202.52 1564.08 1209.12 1563.73 1212.6 1562.68 1217.32 1566.39 1221.84 1567.57 1223.23 1567.92 1223.99 1568.69 1225.66 1569.39 1227.19 1570.44 1228.72 1572.11 1230.04 1572.74 1230.52 1573.44 1231.01 1574.14 1231.5 1574.84 1231.98 1575.47 1232.54 1576.17 1232.96 1581.83 1236.15 1586.93 1227.81 1588.18 1224.48 1590.14 1220.66 1591.68 1214.41 1589.79 1209.26 1587.91 1201.69 1593.56 1204.12 1595.73 1206.55 1596.15 1207.04 1596.5 1207.39 1596.99 1207.8 1606.98 1216.21 1614.04 1235.8 1607.26 1247.62 1600.2 1261.37 1583.22 1257.9 1583.71 1260.82 1581.83 1266.65 1594.75 1269.85 1601.46 1266.86 1603 1266.17 1604.6 1264.92 1605.93 1263.94 1613.27 1258.73 1623.61 1246.92 1614.31 1220.31 1608.45 1206.97 1598.32 1193.84 1583.64 1189.32 1581.76 1188.28 1580.22 1186.54 1578.82 1184.81 1576.24 1182.86 1573.51 1180.22 1569.81 1178.83 1567.85 1177.44 1566.74 1176.19 1566.04 1175.01 1565.76 1174.52 1565.76 1174.32 1565.69 1173.76 1565.55 1172.09 1564.99 1170.01 1564.15 1168.55 1563.8 1167.99 1563.52 1167.44 1563.17 1166.88 1562.05 1164.94 1559.61 1162.02 1556.6 1162.57 1553.88 1163.82 1553.95 1167.58 1554.37 1169.04 1560.94 1175.15 1552.55 1178.55 1545.91 1175.01 1541.16 1173.69 1540.33 1176.82 1537.25 1176.89 1536.06 1176.82 1533.48 1176.26 1535.78 1172.58 1541.44 1161.18 1560.38 1142.98 1552.69 1138.4L1552.69 1138.4ZM1572.74 1204.47C1575.61 1194.4 1580.64 1199.47 1581.48 1201.62 1583.57 1205.51 1583.43 1210.24 1582.94 1211.7 1582.46 1215.31 1578.54 1220.03 1574.07 1212.74 1573.93 1212.53 1573.93 1212.46 1573.86 1212.18 1573.44 1209.61 1572.32 1207.53 1572.81 1204.47L1572.81 1204.47ZM1565.55 1187.24C1567.5 1182.45 1574.07 1186.47 1571.98 1191.48 1567.57 1194.95 1568.97 1195.3 1567.5 1197.17 1565.83 1199.26 1561.63 1201.55 1563.03 1195.79 1565.9 1191.48 1564.78 1190.09 1565.62 1187.24Z" fill-rule="evenodd"/><path d="M1627.41 1176.48C1627.2 1181.46 1627.9 1183.21 1628.68 1186.43 1630.22 1193.64 1626.21 1194.97 1624.45 1198.75 1620.16 1206.03 1626.49 1204.28 1629.24 1202.11 1629.8 1201.69 1630.29 1201.06 1630.86 1200.57 1633.46 1198.12 1635.22 1195.18 1638.67 1193.36 1639.73 1192.8 1640.57 1192.45 1641.56 1191.68 1644.51 1189.3 1649.58 1184.4 1645.43 1182.58 1644.73 1182.3 1644.16 1182.16 1643.53 1181.74 1641.56 1180.54 1638.88 1179.28 1638.25 1176.2 1638.04 1175.22 1638.11 1174.73 1637.62 1173.82 1633.53 1166.4 1627.9 1171.16 1627.41 1176.48Z" fill-rule="evenodd"/><path d="M1715.65 1174.7C1716 1201.35 1713.85 1202.26 1707.59 1204.29 1705.86 1204.85 1705.16 1205.21 1703.36 1204.85 1689.18 1201.98 1689.39 1207.1 1687.59 1211.1 1687.17 1212.01 1686.82 1212.29 1687.1 1213.34 1687.93 1216.99 1693.42 1222.03 1694.74 1222.52 1697.1 1223.58 1700.92 1222.24 1702.94 1223.65 1705.79 1226.73 1702.73 1230.66 1700.3 1236.27 1698.01 1240.33 1697.52 1245.73 1704.88 1248.89 1707.87 1249.73 1711.27 1245.52 1711.48 1244.54 1712.8 1238.02 1713.01 1219.72 1725.59 1215.72 1726.07 1215.58 1726.56 1215.37 1727.04 1215.16 1737.53 1210.32 1748.72 1205.14 1768.93 1204.93 1769.84 1204.93 1770.05 1204.93 1770.74 1204.36 1775.95 1200.23 1775.6 1193 1764.63 1188.52 1763.93 1188.24 1763.52 1188.1 1762.75 1188.1 1758.51 1188.24 1755.11 1191.53 1750.8 1193.85 1746.22 1196.3 1740.59 1197.63 1735.94 1199.53 1731.35 1200.79 1724.2 1206.05 1728.43 1188.73 1728.71 1187.61 1729.13 1187.18 1729.55 1186.2 1730.73 1183.4 1728.71 1176.67 1727.18 1171.69 1727.04 1171.34 1726.97 1171.06 1726.77 1170.78 1725.66 1168.95 1721.76 1163.56 1716.62 1170.29 1715.37 1171.9 1715.65 1172.81 1715.72 1174.77Z" fill-rule="evenodd"/><path d="M1742.74 1226.08C1735.33 1236.44 1744.8 1244.27 1749.29 1247.58 1750.57 1248.14 1759.47 1249.34 1762.89 1241.52 1763.46 1239.12 1762.03 1235.24 1754.2 1229.81 1750.64 1227.77 1746.16 1222.83 1742.74 1226.08Z" fill-rule="evenodd"/><path d="M1808.11 1134.82C1804.45 1136.83 1803.19 1142.66 1802.91 1145.5 1802.91 1146.05 1802.69 1146.54 1802.62 1147.09 1800.86 1154.31 1804.1 1155.76 1807.06 1157.77 1812.13 1160.96 1814.45 1162.84 1819.17 1155.97 1821.63 1152.78 1824.45 1150.15 1820.15 1144.46 1819.87 1144.11 1819.66 1143.77 1819.45 1143.35 1818.74 1142.03 1817.76 1141.06 1816.28 1139.53 1816.07 1139.26 1815.93 1139.19 1815.86 1138.84 1815.08 1136.83 1812.76 1134.47 1809.38 1134.47 1808.89 1134.47 1808.61 1134.47 1808.19 1134.75L1808.19 1134.75ZM1824.31 1130.24C1828.11 1127.47 1830.57 1130.24 1833.74 1131.42 1841.34 1135.23 1845.28 1131.91 1851.27 1131.56 1852.39 1131.56 1852.6 1131.35 1853.66 1130.87 1857.95 1128.58 1863.37 1128.92 1868.3 1129.2 1868.65 1129.2 1868.86 1129.27 1869.22 1129.41 1871.47 1130.17 1871.89 1131.07 1873.37 1132.25 1873.51 1132.39 1873.65 1132.46 1873.79 1132.53 1884.91 1138.15 1874.28 1148.97 1869.85 1158.12 1869.71 1158.33 1869.64 1158.54 1869.5 1158.75 1867.67 1161.38 1867.17 1162.7 1865.91 1164.22 1855.35 1174.84 1871.33 1173.73 1876.47 1177.75 1892.09 1190.44 1876.61 1216.52 1862.18 1223.45 1857.39 1225.19 1855.84 1224.42 1851.2 1234.13 1851.05 1234.41 1850.91 1234.62 1850.77 1234.9 1842.11 1247.66 1852.11 1248.14 1856.48 1247.38 1857.04 1247.31 1857.6 1247.24 1858.16 1247.17 1868.09 1246.69 1871.75 1243.91 1875.34 1244.47 1875.62 1244.47 1875.76 1244.61 1876.04 1244.74 1888.72 1252.1 1879.14 1259.59 1870.55 1260.35 1858.45 1259.72 1864.78 1266.94 1859.22 1276.79 1852.46 1287.88 1841.34 1289.48 1834.09 1283.79 1830.5 1280.25 1826.63 1278.17 1823.32 1273.32 1823.18 1273.18 1823.11 1272.97 1822.97 1272.83 1819.59 1269.02 1816.98 1265.2 1812.9 1261.39 1812.55 1261.04 1812.48 1260.9 1812.41 1260.42 1811.63 1256.81 1812.27 1250.85 1820.08 1253.21 1820.43 1253.34 1820.64 1253.34 1821 1253.34 1828.67 1253.07 1832.4 1252.93 1832.4 1246.06 1832.4 1244.88 1832.47 1244.74 1833.1 1243.7 1836.27 1238.5 1846.34 1223.8 1834.86 1225.12 1834.51 1225.12 1834.16 1225.12 1833.88 1225.19 1833.39 1225.19 1833.1 1225.19 1832.61 1225.33 1827.47 1226.16 1817.48 1222.14 1834.86 1214.37 1849.93 1212.84 1854.65 1220.89 1866.75 1203.48 1872.24 1190.23 1861.33 1177.54 1845.78 1187.6 1836.2 1192.45 1823.67 1201.12 1814.94 1207.57 1809.8 1211.18 1808.19 1213.6 1806.57 1218.32 1803.89 1227.06 1792.14 1225.39 1793.05 1207.5 1793.26 1200.36 1818.46 1184.48 1830.43 1174.84 1839.23 1167.76 1850.14 1157.36 1857.95 1144.04 1860.14 1140.23 1859.5 1133.02 1851.13 1140.23 1844.23 1143.56 1838.95 1153.47 1833.6 1152.36 1829.73 1151.81 1829.02 1149.59 1825.92 1146.96 1824.09 1145.29 1822.62 1143.97 1821.98 1141.62 1821.77 1140.99 1821.7 1140.78 1821.35 1140.23 1820.72 1139.33 1820.36 1138.29 1820.5 1137.04 1820.5 1135.17 1822.83 1131.56 1824.38 1130.38L1824.38 1130.38ZM1839.65 1261.74C1836.62 1262.36 1823.74 1260.42 1834.65 1270.75 1842.68 1276.79 1845.42 1271.52 1846.62 1271.24 1848.45 1269.92 1853.17 1258.55 1839.65 1261.67L1839.65 1261.67ZM1824.66 1129.96 1823.88 1130.59 1824.66 1129.96Z" fill-rule="evenodd"/></g></svg>