<svg width="1702" height="113" xmlns="http://www.w3.org/2000/svg" xmlns:xlink="http://www.w3.org/1999/xlink" xml:space="preserve" overflow="hidden"><defs><clipPath id="clip0"><rect x="1999" y="1150" width="1702" height="113"/></clipPath></defs><g clip-path="url(#clip0)" transform="translate(-1999 -1150)"><path d="M2022.14 1261.72 2022.14 1215.15 2066.49 1215.15 2066.49 1196.78 2022.14 1196.78 2022.14 1170.72 2069.49 1170.72 2069.49 1152.35 1999 1152.35 1999 1261.51 2022.14 1261.51ZM2163.76 1152.56 2163.76 1212.16C2164.19 1225.19 2162.47 1233.95 2159.04 1238.65 2155.4 1244.2 2149.19 1246.98 2140.19 1246.98 2131.19 1246.98 2124.55 1244.2 2120.69 1238.65 2117.05 1233.95 2115.55 1224.98 2115.98 1212.16L2115.98 1152.56 2092.2 1152.56 2092.2 1221.13C2093.06 1248.26 2108.91 1262.36 2140.19 1263 2170.61 1262.15 2186.47 1248.26 2187.54 1221.13L2187.54 1152.56 2163.76 1152.56ZM2211.32 1261.72 2295.31 1261.72 2295.31 1243.35 2240.25 1243.35 2294.02 1170.72 2294.02 1152.35 2214.75 1152.35 2214.75 1170.72 2265.74 1170.72 2211.32 1243.35 2211.32 1261.72 2211.32 1261.72ZM2341.8 1261.72 2341.8 1213.87 2383.79 1213.87 2383.79 1261.72 2406.93 1261.72 2406.93 1152.56 2383.36 1152.56 2383.36 1195.71 2341.8 1195.71 2341.8 1152.56 2318.66 1152.56 2318.66 1261.72 2341.8 1261.72ZM2484.7 1263C2518.34 1262.15 2535.7 1243.78 2536.77 1207.46 2535.48 1170.08 2518.13 1151.07 2484.7 1150.21 2450.85 1151.07 2433.28 1170.08 2432 1207.46 2432.86 1243.56 2450.42 1262.15 2484.7 1263L2484.7 1263ZM2484.7 1167.3C2502.92 1167.3 2511.91 1180.76 2511.91 1207.46 2511.91 1234.16 2502.92 1246.98 2484.7 1246.98 2466.49 1246.98 2456.85 1233.74 2456.85 1207.46 2456.85 1181.19 2466.06 1167.3 2484.7 1167.3L2484.7 1167.3ZM2634.68 1152.56 2634.68 1212.16C2635.11 1225.19 2633.39 1233.95 2629.97 1238.65 2626.32 1244.2 2620.11 1246.98 2611.11 1246.98 2602.11 1246.98 2595.47 1244.2 2591.61 1238.65 2588.19 1233.95 2586.47 1224.98 2586.9 1212.16L2586.9 1152.56 2563.12 1152.56 2563.12 1221.13C2563.98 1248.26 2579.83 1262.36 2611.11 1263 2641.54 1262.15 2657.39 1248.26 2658.46 1221.13L2658.46 1152.56 2634.68 1152.56ZM2794.51 1152.56 2794.51 1212.16C2794.94 1225.19 2793.22 1233.95 2789.8 1238.65 2786.15 1244.2 2779.94 1246.98 2770.94 1246.98 2761.94 1246.98 2755.3 1244.2 2751.45 1238.65 2747.8 1233.95 2746.3 1224.98 2746.73 1212.16L2746.73 1152.56 2722.95 1152.56 2722.95 1221.13C2723.81 1248.26 2739.66 1262.36 2770.94 1263 2801.37 1262.15 2817.22 1248.26 2818.29 1221.13L2818.29 1152.56 2794.51 1152.56ZM2946.84 1261.72 2946.84 1152.56 2924.99 1152.56 2924.99 1238.22 2924.34 1238.86 2882.78 1152.56 2847.86 1152.56 2847.86 1261.72 2869.71 1261.72 2869.71 1171.36 2870.35 1170.72 2912.99 1261.72 2946.84 1261.72ZM2997.19 1152.56 2973.41 1152.56 2973.41 1261.72 2997.19 1261.72 2997.19 1152.56 2997.19 1152.56ZM3056.54 1261.72 3082.03 1261.72 3122.31 1152.56 3099.17 1152.56 3070.68 1238.86 3070.03 1238.86 3041.54 1152.56 3016.04 1152.56 3056.32 1261.72 3056.32 1261.72ZM3140.74 1261.72 3215.94 1261.72 3215.94 1243.35 3164.52 1243.35 3164.52 1214.51 3210.8 1214.51 3210.8 1196.14 3164.52 1196.14 3164.52 1170.72 3214.23 1170.72 3214.23 1152.35 3140.74 1152.35 3140.74 1261.51 3140.74 1261.51ZM3265.22 1170.72 3284.71 1170.72C3295.85 1170.29 3301.21 1174.78 3301.21 1184.39 3301.21 1194.64 3295.64 1199.77 3284.71 1199.77L3265.22 1199.77 3265.22 1170.93 3265.22 1170.93ZM3265.22 1217.93 3290.07 1217.93C3296.07 1217.93 3299.28 1222.63 3300.14 1232.03 3300.57 1242.28 3301.85 1252.11 3304.21 1261.51L3329.71 1261.51C3326.92 1257.23 3324.99 1248.47 3323.71 1235.44 3323.71 1234.59 3323.71 1233.52 3323.06 1231.81 3322.21 1216.01 3315.78 1208.1 3303.57 1207.68L3303.57 1207.03C3318.14 1203.4 3325.63 1194.64 3326.06 1180.55 3325.63 1161.96 3312.99 1152.56 3288.14 1152.14L3241.43 1152.14 3241.43 1261.29 3265.22 1261.29 3265.22 1217.5 3265.22 1217.5ZM3432.97 1183.75C3431.9 1162.39 3419.26 1151.28 3395.69 1150 3366.56 1151.5 3351.34 1163.67 3350.06 1186.1 3350.06 1200.63 3362.06 1210.67 3386.27 1216.22 3387.12 1216.65 3388.41 1217.07 3390.34 1217.5 3404.26 1220.28 3411.12 1225.4 3411.12 1232.88 3410.69 1241.85 3403.41 1246.55 3389.27 1246.98 3377.05 1246.12 3370.84 1239.5 3370.84 1226.9L3347.06 1226.9C3346.63 1250.82 3360.77 1263 3389.05 1263 3419.9 1262.15 3435.54 1250.4 3435.76 1227.54 3436.19 1212.59 3423.55 1202.55 3397.84 1197.42 3396.34 1196.99 3395.27 1196.78 3394.84 1196.78 3380.7 1194.86 3373.84 1189.73 3374.7 1181.4 3375.13 1172.86 3380.91 1167.94 3392.48 1167.3 3403.84 1167.3 3409.83 1172.86 3410.26 1183.75L3432.76 1183.75ZM3483.97 1152.56 3460.18 1152.56 3460.18 1261.72 3483.97 1261.72 3483.97 1152.56 3483.97 1152.56ZM3503.03 1170.93 3535.6 1170.93 3535.6 1261.93 3559.38 1261.93 3559.38 1170.93 3591.95 1170.93 3591.95 1152.56 3503.03 1152.56 3503.03 1170.93 3503.03 1170.93ZM3641.23 1261.93 3664.36 1261.93 3664.36 1226.47 3701 1152.56 3677.43 1152.56 3654.29 1202.76 3631.8 1152.56 3603.95 1152.56 3641.23 1226.47 3641.23 1261.93Z" fill-rule="evenodd"/></g></svg>