<?xml version="1.0" encoding="utf-8"?>
<!-- Generator: Adobe Illustrator 27.2.0, SVG Export Plug-In . SVG Version: 6.00 Build 0)  -->
<svg version="1.1" id="图层_1" xmlns="http://www.w3.org/2000/svg" xmlns:xlink="http://www.w3.org/1999/xlink" x="0px" y="0px"
	 viewBox="0 0 35.7 35.7" style="enable-background:new 0 0 35.7 35.7;" xml:space="preserve">
<style type="text/css">
	.st0{fill-rule:evenodd;clip-rule:evenodd;fill:#FFFFFF;}
</style>
<g id="图层_2_00000041284505219963253840000005849599613462553237_">
	<g id="图层_1-2">
		<path class="st0" d="M17.8,0c9.8,0,17.8,8,17.8,17.8c0,9.8-8,17.8-17.8,17.8C8,35.7,0,27.7,0,17.8c0,0,0,0,0,0C0,8,8,0,17.8,0z
			 M20.6,32.5c-0.1-0.2-0.2-0.3-0.5-0.3c-0.3,0-0.4,0.2-0.4,0.5c0,0.2,0.1,0.3,0.3,0.4c-0.2,0.1-0.3,0.2-0.2,0.4
			c0.1,0.2,0.2,0.3,0.6,0.3c0.3,0,0.5-0.3,0.5-0.5c0-0.2-0.2-0.3-0.4-0.4C20.6,32.8,20.6,32.7,20.6,32.5z M20.5,33.5
			c0-0.1-0.1-0.2-0.4-0.3C20,33.2,20,33.3,20,33.5c0,0.2,0.1,0.3,0.3,0.3C20.4,33.7,20.5,33.6,20.5,33.5
			C20.5,33.5,20.5,33.5,20.5,33.5z M20.4,32.6c0-0.2-0.1-0.3-0.3-0.3c-0.1,0-0.2,0.1-0.2,0.2c0,0,0,0,0,0c0,0.1,0.1,0.2,0.4,0.3
			C20.4,32.8,20.4,32.7,20.4,32.6z M18.4,33.1L18.4,33.1c0.1,0,0.2-0.1,0.3-0.1c0.2,0,0.3,0.1,0.3,0.4s-0.1,0.3-0.2,0.3
			s-0.1,0-0.1-0.1s-0.1-0.1-0.2-0.1s-0.1,0-0.1,0.1s0.1,0.2,0.4,0.2c0.4,0,0.6-0.2,0.6-0.6c0-0.3-0.2-0.5-0.5-0.5c0,0,0,0-0.1,0
			c-0.1,0-0.1,0-0.2,0v-0.3h0.6v-0.3H19c0,0,0,0-0.1,0h-0.5V33L18.4,33.1z M17,33.9c0.5-0.1,0.9-0.5,0.9-0.9c0-0.4-0.2-0.7-0.5-0.7
			c-0.3,0-0.5,0.2-0.5,0.5c0,0,0,0,0,0c0,0.2,0.1,0.5,0.4,0.5c0,0,0,0,0,0c0.1,0,0.2,0,0.3-0.1C17.5,33.5,17.2,33.8,17,33.9
			C16.9,33.8,17,33.9,17,33.9z M17.2,32.8c0,0.3,0,0.4,0.2,0.4c0.1,0,0.1,0,0.2-0.1c0-0.1,0-0.2,0-0.3c0-0.3-0.1-0.5-0.2-0.5
			S17.1,32.5,17.2,32.8L17.2,32.8z M16.2,32.3h-0.1c-0.2,0.1-0.3,0.3-0.5,0.3v0.1c0.1,0,0.2-0.1,0.3-0.1l-0.1,1.1c0,0,0,0.1-0.1,0.1
			c0,0,0,0,0,0h-0.2v0.1l0.8,0.1v-0.1h-0.2c-0.1,0-0.1,0-0.1-0.1L16.2,32.3L16.2,32.3z M23.9,32.4c-0.1,0.4,0.3,0.5,0.5,0.5
			c0.2,0,0.3-0.2,0.3-0.3c0-0.1-0.1-0.2-0.4-0.2C24.2,32.3,24,32.2,23.9,32.4L23.9,32.4z M22.5,31.3c0.4,0.7,0.3,0.8,0.1,0.9
			c0,0-0.1,0.1-0.1,0.1c-0.4,0.1-0.4,0.2-0.4,0.4s0,0,0,0.1c0.1,0.1,0.2,0.1,0.3,0.2c0.1,0,0.2-0.1,0.2-0.1s0.1,0.2,0.1,0.4
			s0,0.3,0.3,0.3c0.1,0,0.1-0.2,0.1-0.2c0-0.2-0.3-0.7,0-1l0,0c0.3-0.4,0.6-0.6,1.1-0.8l0,0c0,0,0-0.4-0.4-0.4h-0.1
			c-0.1,0.1-0.2,0.2-0.3,0.3s-0.2,0.2-0.4,0.4s-0.2,0.3-0.4-0.2v-0.1c0-0.1-0.1-0.3-0.2-0.4l0,0c-0.1,0-0.2-0.1-0.3,0.1
			c0,0.1,0,0.1,0,0.1L22.5,31.3z M14,31.9c0,0.1-0.1,0.2-0.1,0.3c0,0.2-0.1,0.2-0.2,0.3s0,0.2,0.1,0.1h0.1c0.1-0.1,0.2-0.1,0.3-0.1
			h0.1c0.1,0,0.3-0.1,0.2-0.2l0,0c-0.1,0-0.1-0.1-0.1-0.2c0,0,0,0,0-0.1c0-0.2-0.2-0.2-0.3,0L14,31.9z M12.4,30.3
			c-0.1-0.1-0.3,0.1-0.4,0.2l0,0c-0.1,0.1-0.3,0.3-0.5,0.4l0,0c-0.1,0.2-0.3,0.3-0.4,0.5l0,0c-0.3,0.1-0.6,0.4-0.7,0.7l0,0
			c0,0.1,0,0.2,0.1,0.2l0,0c0.1-0.1,0.1-0.2,0.1-0.3c0.1-0.1,0.2-0.2,0.3-0.3c0,0,0.1,0,0.1,0s0.1,0.1,0.2,0c0.1,0,0.1-0.1,0.1-0.1
			l0,0c0.1-0.2,0.2-0.3,0.4-0.3c0.2,0,0.5,0.1,0.4,0.2l0,0c-0.2,0.3-0.4,0.5-0.7,0.7c-0.5,0.3-0.6,0.3-0.7,0.2
			c-0.1,0-0.1-0.1-0.2-0.1l0,0c-0.1,0.1-0.1,0.2,0,0.3l0,0c0.1,0.1,0.3,0.2,0.5,0.2l0,0c0.4-0.1,0.7-0.3,1-0.7c0,0,0-0.1,0.1-0.1
			c0.1-0.1,0.1-0.1,0.1,0.1c-0.1,0.1-0.1,0.2,0,0.4v0.1c0,0.1,0,0.1,0.1,0.2l0,0v0.1c0.1,0.1,0.3,0,0.4-0.1c0.1-0.1,0.2-0.2,0.2-0.4
			c0-0.2,0.1-0.1,0.2,0l0,0c0.4,0.4,0.5,1,0.1,1.4c-0.3,0.3-0.7,0.1-0.7,0.2s0.2,0.3,0.4,0.3h0.1c0.2-0.1,0.6-0.3,0.6-1.1
			c0-0.4-0.2-0.8-0.6-1.1c0,0-0.1-0.1-0.1-0.2c0-0.1-0.1-0.2-0.2-0.2c0,0-0.1-0.1-0.1-0.1l0,0c0-0.1,0-0.1,0-0.2v0
			c0-0.1,0-0.2-0.1-0.2c-0.1,0-0.1,0.1-0.1,0.1c0.1,0.2-0.1,0.2-0.3,0.1s-0.2,0-0.2,0s-0.1,0,0-0.1c0.2-0.3,0.9-0.6,0.7-0.8
			L12.4,30.3z M12.3,31.7c-0.1,0.1,0,0.1-0.1,0.2s0,0.1,0.1,0.1s0-0.1,0.2-0.1S12.4,31.6,12.3,31.7z M12.3,32.2c0,0.1,0,0.1,0,0.2
			l0,0c0.1,0.2,0.2,0.1,0.2,0c0-0.1,0-0.2,0-0.3C12.5,32.1,12.5,31.9,12.3,32.2L12.3,32.2z M9.6,29c0-0.1-0.1-0.1-0.2-0.1l0,0
			c-0.1,0-0.3,0-0.4,0c-0.1,0-0.2-0.2-0.4-0.2l0,0c-0.1,0.1,0,0.1,0,0.2s0.1,0,0.1,0.1s0,0.1-0.1,0.1l-0.1,0.1l0,0c0,0-0.1,0-0.1,0
			l0,0l-0.2,0.1H8.1H8.1L8,29.4l0,0c0,0-0.1,0-0.1,0.1c-0.1,0-0.1,0.1-0.2,0.1l0,0c-0.1,0.1-0.2,0.2-0.3,0.2C7.3,29.9,7.1,29.9,7,30
			l0,0c-0.1,0.1-0.1,0.2-0.1,0.3c0.1,0.1,0.2-0.1,0.3-0.2S7.4,30,7.5,30s0.2-0.2,0.2-0.2c0.1-0.1,0.3-0.2,0.4-0.2
			c0.1,0,0.4-0.1,0.3,0.1s-0.1,0.1-0.2,0.1c-0.1,0.1-0.2,0.1-0.2,0.1c-0.1,0.2,0,0.3,0,0.3c0.4,0.1,0.6,0.1,0.6,0.5
			c-0.1,0.2-0.3,0.4-0.6,0.5c-0.2,0-0.4,0.1-0.5-0.1s0.1-0.1,0.1-0.1s0-0.1,0-0.1s0.1,0,0.2-0.1s0.2-0.1,0.2-0.2
			c-0.1-0.2-0.3-0.1-0.5-0.1s-0.1,0-0.1-0.1c0,0-0.1-0.1-0.1-0.1c-0.1,0-0.2,0.1-0.2,0.1S7,30.5,7,30.5s0,0.2,0,0.2s0.1,0.1,0.2,0.1
			s0,0.1-0.1,0.1S7,31,7,31s0.1,0.1,0.2,0.1c0.1,0,0.1,0.1,0.1,0.1c0,0,0,0,0,0l0,0c0,0.1,0.1,0.2,0.1,0.2l0,0
			c0.2,0.1,0.4,0.1,0.6,0c0.1,0,0.2-0.1,0.3-0.2l0,0c0.1,0,0.1-0.1,0.1-0.1l0,0c0.1,0,0.1-0.1,0.2-0.1c0.1-0.2,0.4-0.3,0.2-0.6
			s-0.3-0.2-0.5-0.4l0,0c0,0,0-0.1,0-0.1l0,0c0,0,0.1,0,0.1,0c0,0,0.1,0,0.1,0c0,0,0-0.1,0.1-0.1s0.3-0.1,0.3-0.2s0-0.1-0.1-0.1
			s-0.1-0.1-0.1-0.1s0.1-0.1,0.1-0.1l0,0c0.1,0,0.1,0,0.2-0.1c0.1,0,0.2,0,0.3,0c0.1,0,0.2,0,0.2-0.1L9.6,29z M8.4,28.5
			c-0.2,0-0.6,0-0.9,0l0,0c-0.1,0-0.2,0-0.3,0l0,0c-0.2-0.1-0.1-0.1-0.2-0.2l0,0c0,0-0.1,0-0.2,0l0,0c-0.1,0.2-0.1,0.4,0,0.4l0,0
			c0.1,0.1,0.2,0.1,0.3,0.1l0,0c0.1,0,0,0.1,0,0.1l0,0c0,0-0.1,0-0.1,0H7C6.8,28.9,6.7,29,6.5,29c-0.2,0-0.4-0.1-0.6,0.1l0,0
			c-0.1,0.2-0.1,0.2-0.1,0.3s0.2,0,0.4,0l0,0c0.1,0,0.1,0,0.2,0c0.2,0.1,0.1,0.2,0,0.2C6.1,29.8,6.2,30,6.2,30l0,0
			c0.1,0,0.1,0,0.2,0l0,0l0.1,0l0,0l0,0l0,0h0.1l0,0c0.1-0.1,0.1-0.1,0.2-0.3v0c0.1-0.1,0.2,0,0.2,0s0,0,0.1,0.1s0.1,0,0.2,0l0,0
			c0.1,0,0.3,0,0.3-0.2s-0.1,0-0.2,0l0,0c-0.1,0-0.1,0-0.2-0.1c0,0,0,0,0-0.1l0,0c0,0,0-0.1,0-0.1l0,0l0.1,0L7.6,29l0,0
			c0,0,0.1,0,0.1,0h0.1h0.1H8h0.1H8c0,0,0.1-0.1,0.1-0.1l0,0c0.1-0.1,0.5-0.1,0.4-0.2l0,0c0,0,0-0.1-0.1-0.1L8.4,28.5z M8,27.6
			c0,0,0,0.1,0,0.1s0,0.1,0,0.1c0,0,0,0.1,0,0.1l0,0c0,0.1,0,0.1,0,0.2l0,0c0,0,0,0,0.1,0l0,0c0.1,0,0.1,0,0.2,0c0,0,0,0,0-0.1l0,0
			c0-0.1,0-0.1,0-0.1l0,0v-0.1l0,0c-0.1-0.1-0.1-0.2-0.2-0.2l0,0C8,27.6,8,27.6,8,27.6C7.9,27.6,8,27.6,8,27.6z M26.2,28.6
			c0,0.1,0,0.2,0,0.3l0,0c0,0.2,0.1,0.1,0.2,0.1s0.2,0,0.2-0.2s0.1-0.2-0.1-0.2l0,0c0,0-0.1,0-0.1,0l0,0
			C26.4,28.5,26.3,28.5,26.2,28.6L26.2,28.6L26.2,28.6z M26.5,28.3c0,0.1,0,0.1,0,0.2c0,0,0,0,0.1,0l0,0c0,0,0.1,0,0.1,0
			c0.1,0,0.1,0,0.2,0s0.1-0.3,0.3-0.5s0.2-0.1,0.2,0c0,0.3-0.1,0.7-0.3,1c-0.2,0.4-0.5,1.1-0.5,1.2c0.2,0.3,0.5,0.2,0.4,0
			c0-0.1,0-0.2,0.1-0.3c0.1-0.3,0.3-0.6,0.5-0.9c0.2-0.4,0.6-0.4,0.6,0c-0.1,0.5-0.3,0.4-0.6,0.7s0,0.3,0.1,0.2l0,0l0,0
			c0.2-0.2,0.2,0.2,0.2,0.4c0,0,0,0,0,0.1c0.1,0.1,0,0.2-0.2,0.3s0,0,0,0c-0.2,0.1-0.1,0.2-0.1,0.2l0,0c0.1,0,0.2,0,0.3,0.1l0,0
			c0.1,0,0.2,0,0.4,0c0.3,0,0.5-0.3,0.5-0.5c0-0.3-0.2-0.3,0.1-0.5s0.3-0.5,0-0.4l0,0c-0.1,0-0.1,0.2-0.4,0.3l0,0
			c-0.1,0.1-0.3,0.2-0.3-0.1l0,0c0-0.1,0-0.3,0.1-0.4c0.2-0.4,0.3-1.1-0.2-1.1c-0.2,0-0.5,0.3-0.4-0.1c0,0,0-0.1,0-0.2l0,0
			c0-0.2,0.1-0.6-0.2-0.5l0,0c0,0-0.1,0-0.1,0l0,0c-0.1,0.1-0.2,0.2-0.3,0.3v0c-0.1,0.1-0.2,0.2-0.4,0.3S26.6,28.2,26.5,28.3
			L26.5,28.3z M28.3,30.5c-0.1,0.1-0.4,0.2,0,0.2s0.2-0.2,0.3-0.2S28.6,30.2,28.3,30.5L28.3,30.5z M26.5,28.2L26.5,28.2z M1.9,15.6
			L2,14.9c0-0.1,0.1-0.2,0.3-0.2v-0.1l-0.5-0.1l-0.3,1.8h0.1l0,0c0-0.2,0.1-0.2,0.3-0.2l1.4,0.2c0.2,0,0.2,0.1,0.2,0.2l0,0h0.1
			l0.2-1H3.8v0.1c0,0.2-0.1,0.2-0.3,0.2l-0.6-0.1L3,15.2C3,15.1,3.1,15,3.2,15v-0.1l-0.7-0.1v0.1c0.2,0,0.2,0.1,0.2,0.3l-0.1,0.5
			C2.7,15.7,1.9,15.6,1.9,15.6z M2.8,12.3L2.8,12.3c0.1-0.2,0.2-0.2,0.4-0.1L4,12.5c0.3,0.1,0.5,0.4,0.4,0.7c0,0,0,0.1-0.1,0.1
			c-0.2,0.4-0.4,0.5-0.8,0.4l-1-0.4c-0.1,0-0.2-0.2-0.1-0.3c0,0,0,0,0-0.1v-0.1l-0.1-0.1l-0.4,1h0.1v-0.1c0-0.1,0.1-0.2,0.2-0.2
			c0,0,0.1,0,0.1,0l1,0.4c0.5,0.2,0.9,0,1.1-0.7c0.2-0.4,0.1-0.9-0.3-1.2c-0.1,0-0.1-0.1-0.2-0.1l-0.8-0.3C3,11.8,3,11.6,3.1,11.4
			l0,0l-0.1,0l-0.3,0.8L2.8,12.3L2.8,12.3z M5.6,9.7L5.5,9.8c0.1,0.1,0.2,0.2,0.3,0.3c0,0.1,0,0.2,0,0.3l-0.5,0.9L4.5,9.1L4.3,9
			l-1,1.8l0.5,0.3l0-0.1c-0.2-0.2-0.3-0.3-0.2-0.5l0.5-0.8l0.8,2.3L5.1,12l1.1-2C6.2,10.1,5.6,9.7,5.6,9.7z M7.3,8.5L7.3,8.5
			l0.8-0.8L8,7.6l0,0C7.9,7.8,7.8,7.8,7.6,7.7L6.5,6.8c-0.1-0.1-0.1-0.2,0-0.4l0,0L6.4,6.3L5.7,7.2l0.1,0.1l0,0
			c0.1-0.2,0.2-0.2,0.4-0.1l0.4,0.4L5.9,8.5L5.4,8.1C5.3,8,5.3,7.9,5.4,7.8l0,0L5.3,7.7L4.6,8.5l0.1,0.1l0,0c0.1-0.1,0.2-0.1,0.3,0
			c0,0,0,0,0,0l1.1,0.9c0.1,0.1,0.1,0.2,0,0.3c0,0,0,0,0,0v0.1L6.2,10l0.8-1L7,8.9l0,0C7,9,7,9.1,6.8,9.2S6.6,9.1,6.6,9L6.1,8.6
			l0.8-0.9l0.5,0.4C7.4,8.2,7.4,8.3,7.3,8.5C7.3,8.4,7.3,8.5,7.3,8.5L7.3,8.5L7.3,8.5z M7.6,6.7c0.4,0.5,1.2,0.5,1.6,0.1
			c0,0,0,0,0.1-0.1C9.9,6.3,10,5.6,9.6,5.1c0,0,0,0,0-0.1C9.2,4.5,8.5,4.5,8,4.8c0,0-0.1,0.1-0.1,0.1C7.4,5.3,7.2,6.1,7.6,6.7
			C7.6,6.7,7.6,6.7,7.6,6.7L7.6,6.7z M7.9,6.2c0.5,0.5,0.9,0.7,1.4,0.3s0.3-0.7,0-1.2S8.4,4.8,8,5.1S7.6,5.8,7.9,6.2L7.9,6.2z
			 M11.2,3.2L11.2,3.2c0.2-0.1,0.3,0,0.4,0.2L12,4.1c0.2,0.3,0.1,0.7-0.2,0.8c0,0-0.1,0-0.1,0c-0.2,0.2-0.6,0.1-0.8-0.1
			c0,0,0-0.1-0.1-0.1l-0.5-0.9c-0.1-0.1,0-0.2,0.1-0.3c0,0,0,0,0.1,0h0.1l-0.1-0.1l-1,0.5L9.6,4h0.1c0.1-0.1,0.2-0.1,0.3-0.1
			C10,3.9,10,4,10,4l0.5,0.9c0.2,0.5,0.7,0.6,1.3,0.3c0.5-0.1,0.7-0.6,0.6-1.1c0,0,0-0.1-0.1-0.1l-0.4-0.8c-0.1-0.2,0-0.3,0.2-0.4
			l0,0l0-0.2L11.2,3L11.2,3.2L11.2,3.2z M18,1.9L18,1.9c0.2,0,0.3,0.1,0.3,0.4v0.9c0,0.4-0.2,0.6-0.7,0.7S17,3.5,17,3.2v-1
			c0-0.2,0.1-0.2,0.2-0.2h0V1.7h-1.1v0.1h0.1c0.2,0,0.3,0.1,0.2,0.2v1c0,0.5,0.4,0.8,1,0.8s1-0.3,1-0.9V2.2c0-0.2,0.1-0.3,0.3-0.3
			l0,0V1.7H18V1.9z M19.8,2.3l1.4,2h0.2l0.3-1.9c0-0.1,0.1-0.2,0.3-0.1l0,0V2.2L21,2.1v0.1l0,0c0.1,0,0.2,0,0.3,0.1
			c0,0.1,0,0.2,0,0.2l-0.1,1L20,1.9l-0.7-0.1V2c0.1,0,0.2,0,0.3,0.1l-0.2,1.6c0,0.2-0.1,0.2-0.3,0.2l0,0L19,4l0.9,0.1V4
			c-0.2,0-0.4-0.1-0.3-0.3L19.8,2.3L19.8,2.3z M22.5,2.6L22.5,2.6c0.1,0,0.2,0.1,0.2,0.2c0,0,0,0.1,0,0.1l-0.4,1.3
			c0,0.2-0.1,0.2-0.3,0.2l0,0v0.1l1.1,0.3V4.7l0,0c-0.2,0-0.2-0.2-0.2-0.3l0.4-1.3c0-0.1,0.1-0.2,0.3-0.2c0,0,0.1,0,0.1,0l0,0l0-0.1
			l-1.1-0.3L22.5,2.6L22.5,2.6z M24.1,5.4l0.2,0.1l1.4-1.3C25.8,4,26,3.9,26.2,4l0,0l0-0.1l-0.8-0.4l0,0.1h0.1
			c0.2,0.1,0.2,0.2,0.1,0.3l-1,1V3.6c0-0.1,0-0.2,0.1-0.2c0.1,0,0.2,0,0.3,0l0,0l0.1,0l-1.1-0.5L23.8,3l0,0c0.1,0,0.1,0.1,0.2,0.1
			c0,0.1,0,0.2,0,0.3v2L24.1,5.4z M27.9,5.4c0.1,0.1,0.1,0.2,0,0.4L28,5.8l0.3-0.4l-1.6-1.2l-0.1,0.1l0,0c0.2,0.1,0.2,0.2,0.1,0.4
			l-0.9,1.1c-0.1,0.1-0.2,0.2-0.4,0l-0.1-0.1l0,0.2L27,7.2l0.4-0.4l-0.1-0.1c-0.2,0.2-0.4,0.2-0.5,0l-0.5-0.3
			c-0.1-0.1-0.1-0.1,0-0.2l0.4-0.5L27,6c0.2,0.1,0.2,0.3,0.1,0.4l0.1,0.1l0.4-0.6l-0.1-0.1c-0.1,0.1-0.2,0.1-0.3,0.1
			c0,0,0,0-0.1-0.1l-0.5-0.3l0.5-0.6L27.9,5.4L27.9,5.4z M28.5,7.4l0.2,0.2c0,0.2,0,0.4-0.1,0.6c0,0.1-0.1,0.3-0.1,0.4
			c0,0.1,0,0.2,0,0.3c0.1,0.1,0.2,0.3,0.3,0.4L29,9.4l0.1-0.1C29,9.2,29,9,29,8.9c0-0.1,0-0.2,0.1-0.4c0-0.2,0.1-0.3,0.1-0.5
			c0.2,0.2,0.5,0.2,0.8,0c0.1-0.1,0.2-0.2,0.2-0.4c0-0.2-0.2-0.5-0.5-0.9l-0.4-0.4L29,6c0,0,0,0-0.1-0.1L28.8,6v0.1
			c0.1,0.2,0.1,0.3,0,0.4l-1,0.9c-0.1,0.1-0.3,0.1-0.4-0.1l0,0l-0.1,0.1L28,8.3l0.1-0.1l-0.1-0.1C28,8.1,27.9,7.9,28,7.8
			c0,0,0,0,0.1-0.1L28.5,7.4L28.5,7.4z M29.4,6.6l-0.8,0.7l0.1,0.1c0.3,0.3,0.6,0.4,0.8,0.2s0.2-0.5,0-0.8L29.4,6.6L29.4,6.6z
			 M29.2,9.6L29.2,9.6c0.1,0.1,0.1,0.1,0.1,0.1v0.1c0.1,0.2,0.1,0.3,0.2,0.4c0.2,0.3,0.5,0.5,0.9,0.3c0.2-0.1,0.3-0.3,0.4-0.5
			c0-0.2,0-0.4,0-0.7c0-0.3,0-0.5,0.1-0.6s0.3,0,0.4,0.1c0.2,0.2,0.1,0.5-0.1,0.8l0.1,0.1l0.4-0.4V9.4l0,0c0,0,0,0-0.1-0.1V9.3
			c0-0.1-0.1-0.3-0.2-0.4c-0.3-0.4-0.6-0.4-0.9-0.3c-0.2,0.2-0.3,0.6-0.2,0.9c0.1,0.2,0,0.5-0.1,0.7c-0.2,0.1-0.4,0.1-0.5-0.1
			c0,0,0,0,0,0c-0.2-0.3-0.1-0.6,0.1-0.8l-0.1-0.1L29.2,9.6L29.2,9.6z M31.9,10.2L31.9,10.2c0.1,0.1,0.1,0.2,0,0.3c0,0-0.1,0-0.1,0
			l-1.2,0.6c-0.1,0.1-0.3,0-0.3-0.1l0,0l-0.1,0.1l0.5,1l0.1-0.1V12c-0.1-0.2-0.1-0.3,0.1-0.4L32,11c0.1-0.1,0.3,0,0.3,0.1
			c0,0,0,0,0,0l0,0l0.1-0.1l-0.5-1L31.9,10.2L31.9,10.2z M33,12.9l0.1,0.4c0,0.1,0,0.2,0,0.3c-0.1,0.1-0.2,0.2-0.3,0.2L33,14
			l0.6-0.3v-0.1c-0.1,0-0.1-0.1-0.1-0.1l-0.6-1.6c0,0,0-0.1,0-0.1c0,0,0-0.1,0-0.1v-0.1l-0.6,0.2v0.1c0.1,0,0.2,0,0.4,0
			c0.1,0,0.1,0.1,0.2,0.2l0.2,0.4L31.3,13c-0.2,0.1-0.3,0-0.3-0.2v-0.1h-0.1l0.4,1.2l0.1-0.1v-0.1c-0.1-0.2,0-0.3,0.1-0.4L33,12.9z
			 M32.6,16l1,0.4c0.1,0,0.2,0.1,0.2,0.1c0,0.1,0.1,0.1,0.1,0.2h0.1L34,16h-0.1l0,0c0,0.1,0,0.2,0,0.2s-0.1,0-0.2,0l-0.7-0.3
			l0.6-0.7c0,0,0.1-0.1,0.1,0c0,0,0.1,0.1,0.1,0.2v0.1h0.1l-0.2-1.1h-0.1l0,0c0,0.1,0,0.1,0,0.2c0,0.1-0.1,0.1-0.1,0.1l-0.8,0.9
			l-0.5,0.1c-0.2,0-0.3,0-0.3-0.2v-0.1h-0.1l0.2,1.2H32v0c0-0.2,0-0.3,0.2-0.4L32.6,16L32.6,16z M33,18.4c-0.5,0-0.8,0.4-0.8,0.8
			s0.4,0.8,0.8,0.8c0.5,0,0.8-0.4,0.8-0.8C33.8,18.8,33.5,18.4,33,18.4L33,18.4z M2.5,18.6c-0.5,0-0.8,0.4-0.8,0.8s0.4,0.8,0.8,0.8
			s0.8-0.4,0.8-0.8l0,0C3.4,18.9,3,18.6,2.5,18.6z M17.8,5.7c-6.7,0-12.2,5.5-12.1,12.2c0,6.7,5.5,12.2,12.2,12.1
			C24.6,30,30,24.5,30,17.8C30,11.1,24.6,5.7,17.8,5.7C17.8,5.7,17.8,5.7,17.8,5.7z M17.5,18v5.9c1,3.4,7.7,4,9.1,0V18L17.5,18
			L17.5,18z M17.7,12.9v2.8c1.9,2.3,7,1.4,8.2-0.1v-2.7c-0.5-0.1-1-0.1-1.5,0v1.9c-1,1.4-4.4,1.3-5.2,0v-1.9
			C18.7,12.7,18.2,12.7,17.7,12.9L17.7,12.9z M14.5,15.7L14.7,26l1.7-0.1l-0.2-10.3L14.5,15.7L14.5,15.7z M9.2,10.3v1.4h7.1v-1.4
			L9.2,10.3z M9.2,12.9v1.5h2.7v12.2h1.7l0.1-12.3h2.7v-1.5H9.2z M9.3,15.5C9.5,19,9.4,22.4,9,25.8l1.6,0.1
			c0.3-3.4,0.4-6.9,0.3-10.3L9.3,15.5z M17.2,10.1v1H19v1.3l2.8,1.2l3-1.2v-1.3h1.5c0.1,1.2,0.4,2.3,1,3.3c0.3,0.3,1.1-0.1,0.7-0.4
			c-0.4-0.5-0.6-1.1-0.7-1.7c-0.1-0.3,0.1-1.1-0.3-1.4c-0.1,0-0.6,0.2-0.6-0.1v-0.7L17.2,10.1L17.2,10.1z M19,19.2v1.9h2.4v-1.8
			L19,19.2z M22.5,19.2v1.9H25v-1.9L22.5,19.2z M22.5,22.3v2.9c0.9-0.2,1.8-0.7,2.5-1.3v-1.6L22.5,22.3z M19,22.3v1.6
			c0.6,0.7,1.5,1.2,2.5,1.3v-2.9H19z M17.8,4.5c-7.4,0-13.3,6-13.3,13.3s6,13.3,13.3,13.3s13.3-6,13.3-13.3c0,0,0,0,0,0
			C31.2,10.5,25.2,4.5,17.8,4.5C17.8,4.5,17.8,4.5,17.8,4.5z M17.8,4.9c-7.2,0-12.9,5.8-12.9,13s5.8,12.9,13,12.9
			c7.1,0,12.9-5.8,12.9-13C30.8,10.7,25,4.9,17.8,4.9C17.8,4.9,17.8,4.9,17.8,4.9z M17.8,0.6C8.3,0.6,0.6,8.3,0.6,17.8
			C0.6,27.3,8.3,35,17.8,35C27.3,35,35,27.3,35,17.8c0,0,0,0,0,0C35,8.3,27.3,0.6,17.8,0.6z"/>
	</g>
</g>
</svg>
